<svg width="860" height="261" viewBox="0 0 860 261" fill="none" xmlns="http://www.w3.org/2000/svg">
<rect x="20" y="10" width="840" height="63" rx="8" fill="#FFFCF1"/>
<path d="M51.1477 35V23.3636H55.5114C56.4053 23.3636 57.1553 23.5303 57.7614 23.8636C58.3712 24.197 58.8314 24.6553 59.142 25.2386C59.4564 25.8182 59.6136 26.4773 59.6136 27.2159C59.6136 27.9621 59.4564 28.625 59.142 29.2045C58.8277 29.7841 58.3636 30.2405 57.75 30.5739C57.1364 30.9034 56.3807 31.0682 55.483 31.0682H52.5909V29.3352H55.1989C55.7216 29.3352 56.1496 29.2443 56.483 29.0625C56.8163 28.8807 57.0625 28.6307 57.2216 28.3125C57.3845 27.9943 57.4659 27.6288 57.4659 27.2159C57.4659 26.803 57.3845 26.4394 57.2216 26.125C57.0625 25.8106 56.8144 25.5663 56.4773 25.392C56.1439 25.214 55.714 25.125 55.1875 25.125H53.2557V35H51.1477ZM61.3537 35V26.2727H63.348V27.7273H63.4389C63.598 27.2235 63.8707 26.8352 64.2571 26.5625C64.6473 26.286 65.0923 26.1477 65.5923 26.1477C65.706 26.1477 65.8329 26.1534 65.973 26.1648C66.117 26.1723 66.2363 26.1856 66.331 26.2045V28.0966C66.2438 28.0663 66.1056 28.0398 65.9162 28.017C65.7306 27.9905 65.5507 27.9773 65.3764 27.9773C65.0014 27.9773 64.6643 28.0587 64.3651 28.2216C64.0696 28.3807 63.8366 28.6023 63.6662 28.8864C63.4957 29.1705 63.4105 29.4981 63.4105 29.8693V35H61.3537ZM71.1449 35.1705C70.2926 35.1705 69.554 34.983 68.929 34.608C68.304 34.233 67.8191 33.7083 67.4744 33.0341C67.1335 32.3598 66.9631 31.572 66.9631 30.6705C66.9631 29.7689 67.1335 28.9792 67.4744 28.3011C67.8191 27.6231 68.304 27.0966 68.929 26.7216C69.554 26.3466 70.2926 26.1591 71.1449 26.1591C71.9972 26.1591 72.7358 26.3466 73.3608 26.7216C73.9858 27.0966 74.4688 27.6231 74.8097 28.3011C75.1544 28.9792 75.3267 29.7689 75.3267 30.6705C75.3267 31.572 75.1544 32.3598 74.8097 33.0341C74.4688 33.7083 73.9858 34.233 73.3608 34.608C72.7358 34.983 71.9972 35.1705 71.1449 35.1705ZM71.1562 33.5227C71.6184 33.5227 72.0047 33.3958 72.3153 33.142C72.6259 32.8845 72.857 32.5398 73.0085 32.108C73.1638 31.6761 73.2415 31.1951 73.2415 30.6648C73.2415 30.1307 73.1638 29.6477 73.0085 29.2159C72.857 28.7803 72.6259 28.4337 72.3153 28.1761C72.0047 27.9186 71.6184 27.7898 71.1562 27.7898C70.6828 27.7898 70.2888 27.9186 69.9744 28.1761C69.6638 28.4337 69.4309 28.7803 69.2756 29.2159C69.1241 29.6477 69.0483 30.1307 69.0483 30.6648C69.0483 31.1951 69.1241 31.6761 69.2756 32.108C69.4309 32.5398 69.6638 32.8845 69.9744 33.142C70.2888 33.3958 70.6828 33.5227 71.1562 33.5227ZM77.0724 38.2727V26.2727H79.0952V27.7159H79.2145C79.3205 27.5038 79.4702 27.2784 79.6634 27.0398C79.8565 26.7973 80.1179 26.5909 80.4474 26.4205C80.777 26.2462 81.1974 26.1591 81.7088 26.1591C82.383 26.1591 82.991 26.3314 83.5327 26.6761C84.0781 27.017 84.5099 27.5227 84.8281 28.1932C85.1501 28.8598 85.3111 29.678 85.3111 30.6477C85.3111 31.6061 85.1539 32.4205 84.8395 33.0909C84.5251 33.7614 84.0971 34.2727 83.5554 34.625C83.0137 34.9773 82.4001 35.1534 81.7145 35.1534C81.2145 35.1534 80.7997 35.0701 80.4702 34.9034C80.1406 34.7367 79.8755 34.536 79.6747 34.3011C79.4777 34.0625 79.3243 33.8371 79.2145 33.625H79.1293V38.2727H77.0724ZM79.0895 30.6364C79.0895 31.2008 79.169 31.6951 79.3281 32.1193C79.491 32.5436 79.724 32.875 80.027 33.1136C80.3338 33.3485 80.705 33.4659 81.1406 33.4659C81.5952 33.4659 81.9759 33.3447 82.2827 33.1023C82.5895 32.8561 82.8205 32.5208 82.9759 32.0966C83.1349 31.6686 83.2145 31.1818 83.2145 30.6364C83.2145 30.0947 83.1368 29.6136 82.9815 29.1932C82.8262 28.7727 82.5952 28.4432 82.2884 28.2045C81.9815 27.9659 81.599 27.8466 81.1406 27.8466C80.7012 27.8466 80.3281 27.9621 80.0213 28.1932C79.7145 28.4242 79.4815 28.7481 79.3224 29.1648C79.1671 29.5814 79.0895 30.072 79.0895 30.6364ZM87.0724 35V26.2727H89.0668V27.7273H89.1577C89.3168 27.2235 89.5895 26.8352 89.9759 26.5625C90.366 26.286 90.8111 26.1477 91.3111 26.1477C91.4247 26.1477 91.5516 26.1534 91.6918 26.1648C91.8357 26.1723 91.955 26.1856 92.0497 26.2045V28.0966C91.9626 28.0663 91.8243 28.0398 91.6349 28.017C91.4493 27.9905 91.2694 27.9773 91.0952 27.9773C90.7202 27.9773 90.383 28.0587 90.0838 28.2216C89.7884 28.3807 89.5554 28.6023 89.3849 28.8864C89.2145 29.1705 89.1293 29.4981 89.1293 29.8693V35H87.0724ZM93.4162 35V26.2727H95.473V35H93.4162ZM94.4503 25.0341C94.1245 25.0341 93.8442 24.9261 93.6094 24.7102C93.3745 24.4905 93.2571 24.2273 93.2571 23.9205C93.2571 23.6098 93.3745 23.3466 93.6094 23.1307C93.8442 22.911 94.1245 22.8011 94.4503 22.8011C94.7798 22.8011 95.0601 22.911 95.2912 23.1307C95.526 23.3466 95.6435 23.6098 95.6435 23.9205C95.6435 24.2273 95.526 24.4905 95.2912 24.7102C95.0601 24.9261 94.7798 25.0341 94.4503 25.0341ZM101.452 35.1705C100.577 35.1705 99.821 34.9886 99.1847 34.625C98.5521 34.2576 98.0653 33.7386 97.7244 33.0682C97.3835 32.3939 97.2131 31.6004 97.2131 30.6875C97.2131 29.7898 97.3835 29.0019 97.7244 28.3239C98.0691 27.642 98.5502 27.1117 99.1676 26.733C99.785 26.3504 100.51 26.1591 101.344 26.1591C101.882 26.1591 102.389 26.2462 102.866 26.4205C103.348 26.5909 103.772 26.8561 104.139 27.2159C104.51 27.5758 104.802 28.0341 105.014 28.5909C105.226 29.1439 105.332 29.803 105.332 30.5682V31.1989H98.179V29.8125H103.361C103.357 29.4186 103.272 29.0682 103.105 28.7614C102.938 28.4508 102.705 28.2064 102.406 28.0284C102.111 27.8504 101.766 27.7614 101.372 27.7614C100.952 27.7614 100.582 27.8636 100.264 28.0682C99.946 28.2689 99.6979 28.5341 99.5199 28.8636C99.3456 29.1894 99.2566 29.5473 99.2528 29.9375V31.1477C99.2528 31.6553 99.3456 32.0909 99.5312 32.4545C99.7169 32.8144 99.9763 33.0909 100.31 33.2841C100.643 33.4735 101.033 33.5682 101.48 33.5682C101.779 33.5682 102.05 33.5265 102.293 33.4432C102.535 33.3561 102.745 33.2292 102.923 33.0625C103.101 32.8958 103.236 32.6894 103.327 32.4432L105.247 32.6591C105.126 33.1667 104.895 33.6098 104.554 33.9886C104.217 34.3636 103.785 34.6553 103.259 34.8636C102.732 35.0682 102.13 35.1705 101.452 35.1705ZM100.497 25.125L101.77 22.5284H103.781L102.037 25.125H100.497ZM111.43 26.2727V27.8636H106.413V26.2727H111.43ZM107.652 24.1818H109.709V32.375C109.709 32.6515 109.75 32.8636 109.834 33.0114C109.921 33.1553 110.035 33.2538 110.175 33.3068C110.315 33.3598 110.47 33.3864 110.641 33.3864C110.769 33.3864 110.887 33.3769 110.993 33.358C111.103 33.339 111.186 33.322 111.243 33.3068L111.589 34.9148C111.48 34.9527 111.322 34.9943 111.118 35.0398C110.917 35.0852 110.671 35.1117 110.379 35.1193C109.864 35.1345 109.4 35.0568 108.987 34.8864C108.574 34.7121 108.247 34.4432 108.004 34.0795C107.766 33.7159 107.648 33.2614 107.652 32.7159V24.1818ZM116.92 35.1705C116.045 35.1705 115.29 34.9886 114.653 34.625C114.021 34.2576 113.534 33.7386 113.193 33.0682C112.852 32.3939 112.682 31.6004 112.682 30.6875C112.682 29.7898 112.852 29.0019 113.193 28.3239C113.538 27.642 114.019 27.1117 114.636 26.733C115.254 26.3504 115.979 26.1591 116.812 26.1591C117.35 26.1591 117.858 26.2462 118.335 26.4205C118.816 26.5909 119.241 26.8561 119.608 27.2159C119.979 27.5758 120.271 28.0341 120.483 28.5909C120.695 29.1439 120.801 29.803 120.801 30.5682V31.1989H113.648V29.8125H118.83C118.826 29.4186 118.741 29.0682 118.574 28.7614C118.407 28.4508 118.174 28.2064 117.875 28.0284C117.58 27.8504 117.235 27.7614 116.841 27.7614C116.42 27.7614 116.051 27.8636 115.733 28.0682C115.415 28.2689 115.167 28.5341 114.989 28.8636C114.814 29.1894 114.725 29.5473 114.722 29.9375V31.1477C114.722 31.6553 114.814 32.0909 115 32.4545C115.186 32.8144 115.445 33.0909 115.778 33.2841C116.112 33.4735 116.502 33.5682 116.949 33.5682C117.248 33.5682 117.519 33.5265 117.761 33.4432C118.004 33.3561 118.214 33.2292 118.392 33.0625C118.57 32.8958 118.705 32.6894 118.795 32.4432L120.716 32.6591C120.595 33.1667 120.364 33.6098 120.023 33.9886C119.686 34.3636 119.254 34.6553 118.727 34.8636C118.201 35.0682 117.598 35.1705 116.92 35.1705ZM115.966 25.125L117.239 22.5284H119.25L117.506 25.125H115.966ZM123.808 35.125C123.464 35.125 123.168 35.0038 122.922 34.7614C122.676 34.5189 122.554 34.2235 122.558 33.875C122.554 33.5341 122.676 33.2424 122.922 33C123.168 32.7576 123.464 32.6364 123.808 32.6364C124.142 32.6364 124.431 32.7576 124.678 33C124.928 33.2424 125.054 33.5341 125.058 33.875C125.054 34.1061 124.994 34.3163 124.876 34.5057C124.763 34.6951 124.611 34.8466 124.422 34.9602C124.236 35.0701 124.032 35.125 123.808 35.125ZM123.808 28.8977C123.464 28.8977 123.168 28.7765 122.922 28.5341C122.676 28.2879 122.554 27.9924 122.558 27.6477C122.554 27.3068 122.676 27.0152 122.922 26.7727C123.168 26.5265 123.464 26.4034 123.808 26.4034C124.142 26.4034 124.431 26.5265 124.678 26.7727C124.928 27.0152 125.054 27.3068 125.058 27.6477C125.054 27.875 124.994 28.0833 124.876 28.2727C124.763 28.4621 124.611 28.6136 124.422 28.7273C124.236 28.8409 124.032 28.8977 123.808 28.8977Z" fill="#FFAC00"/>
<path d="M57.7727 50.2727C57.7045 49.697 57.428 49.25 56.9432 48.9318C56.4583 48.6136 55.8636 48.4545 55.1591 48.4545C54.6439 48.4545 54.1932 48.5379 53.8068 48.7045C53.4242 48.8712 53.125 49.1004 52.9091 49.392C52.697 49.6837 52.5909 50.0152 52.5909 50.3864C52.5909 50.697 52.6648 50.964 52.8125 51.1875C52.964 51.4072 53.1572 51.5909 53.392 51.7386C53.6269 51.8826 53.8731 52.0019 54.1307 52.0966C54.3883 52.1875 54.625 52.2614 54.8409 52.3182L56.0227 52.6364C56.3258 52.7159 56.6629 52.8258 57.0341 52.9659C57.4091 53.1061 57.767 53.2973 58.108 53.5398C58.4527 53.7784 58.7367 54.0852 58.9602 54.4602C59.1837 54.8352 59.2955 55.2955 59.2955 55.8409C59.2955 56.4697 59.1307 57.0379 58.8011 57.5455C58.4754 58.053 57.9981 58.4564 57.3693 58.7557C56.7443 59.0549 55.9848 59.2045 55.0909 59.2045C54.2576 59.2045 53.536 59.0701 52.9261 58.8011C52.3201 58.5322 51.8428 58.1572 51.4943 57.6761C51.1496 57.1951 50.9545 56.6364 50.9091 56H52.3636C52.4015 56.4394 52.5492 56.803 52.8068 57.0909C53.0682 57.375 53.3977 57.5871 53.7955 57.7273C54.197 57.8636 54.6288 57.9318 55.0909 57.9318C55.6288 57.9318 56.1117 57.8447 56.5398 57.6705C56.9678 57.4924 57.3068 57.2462 57.5568 56.9318C57.8068 56.6136 57.9318 56.2424 57.9318 55.8182C57.9318 55.4318 57.8239 55.1174 57.608 54.875C57.392 54.6326 57.108 54.4356 56.7557 54.2841C56.4034 54.1326 56.0227 54 55.6136 53.8864L54.1818 53.4773C53.2727 53.2159 52.553 52.8428 52.0227 52.358C51.4924 51.8731 51.2273 51.2386 51.2273 50.4545C51.2273 49.803 51.4034 49.2348 51.7557 48.75C52.1117 48.2614 52.589 47.8826 53.1875 47.6136C53.7898 47.3409 54.4621 47.2045 55.2045 47.2045C55.9545 47.2045 56.6212 47.339 57.2045 47.608C57.7879 47.8731 58.25 48.2367 58.5909 48.6989C58.9356 49.161 59.1174 49.6856 59.1364 50.2727H57.7727ZM64.9759 59.1818C64.188 59.1818 63.4967 58.9943 62.902 58.6193C62.3111 58.2443 61.849 57.7197 61.5156 57.0455C61.1861 56.3712 61.0213 55.5833 61.0213 54.6818C61.0213 53.7727 61.1861 52.9792 61.5156 52.3011C61.849 51.6231 62.3111 51.0966 62.902 50.7216C63.4967 50.3466 64.188 50.1591 64.9759 50.1591C65.7637 50.1591 66.4531 50.3466 67.044 50.7216C67.6387 51.0966 68.1009 51.6231 68.4304 52.3011C68.7637 52.9792 68.9304 53.7727 68.9304 54.6818C68.9304 55.5833 68.7637 56.3712 68.4304 57.0455C68.1009 57.7197 67.6387 58.2443 67.044 58.6193C66.4531 58.9943 65.7637 59.1818 64.9759 59.1818ZM64.9759 57.9773C65.5743 57.9773 66.0668 57.8239 66.4531 57.517C66.8395 57.2102 67.1255 56.8068 67.3111 56.3068C67.4967 55.8068 67.5895 55.2652 67.5895 54.6818C67.5895 54.0985 67.4967 53.5549 67.3111 53.0511C67.1255 52.5473 66.8395 52.1402 66.4531 51.8295C66.0668 51.5189 65.5743 51.3636 64.9759 51.3636C64.3774 51.3636 63.8849 51.5189 63.4986 51.8295C63.1122 52.1402 62.8262 52.5473 62.6406 53.0511C62.455 53.5549 62.3622 54.0985 62.3622 54.6818C62.3622 55.2652 62.455 55.8068 62.6406 56.3068C62.8262 56.8068 63.1122 57.2102 63.4986 57.517C63.8849 57.8239 64.3774 57.9773 64.9759 57.9773ZM76.4773 55.4318V50.2727H77.8182V59H76.4773V57.5227H76.3864C76.1818 57.9659 75.8636 58.3428 75.4318 58.6534C75 58.9602 74.4545 59.1136 73.7955 59.1136C73.25 59.1136 72.7652 58.9943 72.3409 58.7557C71.9167 58.5133 71.5833 58.1496 71.3409 57.6648C71.0985 57.1761 70.9773 56.5606 70.9773 55.8182V50.2727H72.3182V55.7273C72.3182 56.3636 72.4962 56.8712 72.8523 57.25C73.2121 57.6288 73.6705 57.8182 74.2273 57.8182C74.5606 57.8182 74.8996 57.733 75.2443 57.5625C75.5928 57.392 75.8845 57.1307 76.1193 56.7784C76.358 56.4261 76.4773 55.9773 76.4773 55.4318ZM86.456 52.2273L85.2514 52.5682C85.1757 52.3674 85.0639 52.1723 84.9162 51.983C84.7723 51.7898 84.5753 51.6307 84.3253 51.5057C84.0753 51.3807 83.7552 51.3182 83.3651 51.3182C82.831 51.3182 82.3859 51.4413 82.0298 51.6875C81.6776 51.9299 81.5014 52.2386 81.5014 52.6136C81.5014 52.947 81.6226 53.2102 81.8651 53.4034C82.1075 53.5966 82.4863 53.7576 83.0014 53.8864L84.2969 54.2045C85.0772 54.3939 85.6586 54.6837 86.0412 55.0739C86.4238 55.4602 86.6151 55.9583 86.6151 56.5682C86.6151 57.0682 86.4711 57.5152 86.1832 57.9091C85.8991 58.303 85.5014 58.6136 84.9901 58.8409C84.4787 59.0682 83.884 59.1818 83.206 59.1818C82.3158 59.1818 81.5791 58.9886 80.9957 58.6023C80.4124 58.2159 80.0431 57.6515 79.8878 56.9091L81.1605 56.5909C81.2817 57.0606 81.5109 57.4129 81.848 57.6477C82.1889 57.8826 82.634 58 83.1832 58C83.8082 58 84.3045 57.8674 84.6719 57.6023C85.0431 57.3333 85.2287 57.0114 85.2287 56.6364C85.2287 56.3333 85.1226 56.0795 84.9105 55.875C84.6984 55.6667 84.3726 55.5114 83.9332 55.4091L82.4787 55.0682C81.6795 54.8788 81.0923 54.5852 80.7173 54.1875C80.3461 53.786 80.1605 53.2841 80.1605 52.6818C80.1605 52.1894 80.2988 51.7538 80.5753 51.375C80.8556 50.9962 81.2363 50.6989 81.7173 50.483C82.2022 50.267 82.7514 50.1591 83.3651 50.1591C84.2287 50.1591 84.9067 50.3485 85.3991 50.7273C85.8954 51.1061 86.2476 51.6061 86.456 52.2273ZM92.429 50.2727V51.4091H87.9062V50.2727H92.429ZM89.2244 48.1818H90.5653V56.5C90.5653 56.8788 90.6203 57.1629 90.7301 57.3523C90.8438 57.5379 90.9877 57.6629 91.1619 57.7273C91.34 57.7879 91.5275 57.8182 91.7244 57.8182C91.8722 57.8182 91.9934 57.8106 92.0881 57.7955C92.1828 57.7765 92.2585 57.7614 92.3153 57.75L92.5881 58.9545C92.4972 58.9886 92.3703 59.0227 92.2074 59.0568C92.0445 59.0947 91.8381 59.1136 91.5881 59.1136C91.2093 59.1136 90.8381 59.0322 90.4744 58.8693C90.1146 58.7064 89.8153 58.4583 89.5767 58.125C89.3419 57.7917 89.2244 57.3712 89.2244 56.8636V48.1818ZM94.446 59V50.2727H95.7415V51.5909H95.8324C95.9915 51.1591 96.2794 50.8087 96.696 50.5398C97.1127 50.2708 97.5824 50.1364 98.1051 50.1364C98.2036 50.1364 98.3267 50.1383 98.4744 50.142C98.6222 50.1458 98.7339 50.1515 98.8097 50.1591V51.5227C98.7642 51.5114 98.66 51.4943 98.4972 51.4716C98.3381 51.4451 98.1695 51.4318 97.9915 51.4318C97.5672 51.4318 97.1884 51.5208 96.8551 51.6989C96.5256 51.8731 96.2642 52.1155 96.071 52.4261C95.8816 52.733 95.7869 53.0833 95.7869 53.4773V59H94.446ZM102.967 59.2045C102.414 59.2045 101.912 59.1004 101.462 58.892C101.011 58.6799 100.653 58.375 100.388 57.9773C100.123 57.5758 99.9901 57.0909 99.9901 56.5227C99.9901 56.0227 100.089 55.6174 100.286 55.3068C100.482 54.9924 100.746 54.7462 101.075 54.5682C101.405 54.3902 101.768 54.2576 102.166 54.1705C102.568 54.0795 102.971 54.0076 103.376 53.9545C103.907 53.8864 104.337 53.8352 104.666 53.8011C105 53.7633 105.242 53.7008 105.393 53.6136C105.549 53.5265 105.626 53.375 105.626 53.1591V53.1136C105.626 52.553 105.473 52.1174 105.166 51.8068C104.863 51.4962 104.403 51.3409 103.786 51.3409C103.145 51.3409 102.643 51.4811 102.28 51.7614C101.916 52.0417 101.661 52.3409 101.513 52.6591L100.24 52.2045C100.467 51.6742 100.77 51.2614 101.149 50.9659C101.532 50.6667 101.948 50.4583 102.399 50.3409C102.854 50.2197 103.301 50.1591 103.74 50.1591C104.02 50.1591 104.342 50.1932 104.706 50.2614C105.073 50.3258 105.428 50.4602 105.768 50.6648C106.113 50.8693 106.399 51.178 106.626 51.5909C106.854 52.0038 106.967 52.5568 106.967 53.25V59H105.626V57.8182H105.558C105.467 58.0076 105.316 58.2102 105.104 58.4261C104.892 58.642 104.609 58.8258 104.257 58.9773C103.905 59.1288 103.475 59.2045 102.967 59.2045ZM103.172 58C103.702 58 104.149 57.8958 104.513 57.6875C104.88 57.4792 105.157 57.2102 105.342 56.8807C105.532 56.5511 105.626 56.2045 105.626 55.8409V54.6136C105.57 54.6818 105.445 54.7443 105.251 54.8011C105.062 54.8542 104.842 54.9015 104.592 54.9432C104.346 54.9811 104.106 55.0152 103.871 55.0455C103.64 55.072 103.452 55.0947 103.308 55.1136C102.96 55.1591 102.634 55.233 102.331 55.3352C102.032 55.4337 101.789 55.5833 101.604 55.7841C101.422 55.9811 101.331 56.25 101.331 56.5909C101.331 57.0568 101.503 57.4091 101.848 57.6477C102.196 57.8826 102.638 58 103.172 58ZM109.415 59V50.2727H110.756V59H109.415ZM110.097 48.8182C109.835 48.8182 109.61 48.7292 109.42 48.5511C109.235 48.3731 109.142 48.1591 109.142 47.9091C109.142 47.6591 109.235 47.4451 109.42 47.267C109.61 47.089 109.835 47 110.097 47C110.358 47 110.581 47.089 110.767 47.267C110.956 47.4451 111.051 47.6591 111.051 47.9091C111.051 48.1591 110.956 48.3731 110.767 48.5511C110.581 48.7292 110.358 48.8182 110.097 48.8182ZM113.212 59V50.2727H114.507V51.5909H114.598C114.757 51.1591 115.045 50.8087 115.462 50.5398C115.878 50.2708 116.348 50.1364 116.871 50.1364C116.969 50.1364 117.092 50.1383 117.24 50.142C117.388 50.1458 117.5 50.1515 117.575 50.1591V51.5227C117.53 51.5114 117.426 51.4943 117.263 51.4716C117.104 51.4451 116.935 51.4318 116.757 51.4318C116.333 51.4318 115.954 51.5208 115.621 51.6989C115.291 51.8731 115.03 52.1155 114.837 52.4261C114.647 52.733 114.553 53.0833 114.553 53.4773V59H113.212ZM122.558 59.1818C121.717 59.1818 120.992 58.9962 120.382 58.625C119.776 58.25 119.308 57.7273 118.979 57.0568C118.653 56.3826 118.49 55.5985 118.49 54.7045C118.49 53.8106 118.653 53.0227 118.979 52.3409C119.308 51.6553 119.767 51.1212 120.354 50.7386C120.945 50.3523 121.634 50.1591 122.422 50.1591C122.876 50.1591 123.325 50.2348 123.768 50.3864C124.212 50.5379 124.615 50.7841 124.979 51.125C125.342 51.4621 125.632 51.9091 125.848 52.4659C126.064 53.0227 126.172 53.7083 126.172 54.5227V55.0909H119.445V53.9318H124.808C124.808 53.4394 124.71 53 124.513 52.6136C124.32 52.2273 124.043 51.9223 123.683 51.6989C123.327 51.4754 122.907 51.3636 122.422 51.3636C121.888 51.3636 121.426 51.4962 121.036 51.7614C120.649 52.0227 120.352 52.3636 120.143 52.7841C119.935 53.2045 119.831 53.6553 119.831 54.1364V54.9091C119.831 55.5682 119.945 56.1269 120.172 56.5852C120.403 57.0398 120.723 57.3864 121.132 57.625C121.541 57.8598 122.017 57.9773 122.558 57.9773C122.911 57.9773 123.229 57.928 123.513 57.8295C123.801 57.7273 124.049 57.5758 124.257 57.375C124.465 57.1705 124.626 56.9167 124.74 56.6136L126.036 56.9773C125.899 57.4167 125.67 57.803 125.348 58.1364C125.026 58.4659 124.628 58.7235 124.155 58.9091C123.681 59.0909 123.149 59.1818 122.558 59.1818ZM138.212 55.4318V50.2727H139.553V59H138.212V57.5227H138.121C137.916 57.9659 137.598 58.3428 137.166 58.6534C136.734 58.9602 136.189 59.1136 135.53 59.1136C134.984 59.1136 134.5 58.9943 134.075 58.7557C133.651 58.5133 133.318 58.1496 133.075 57.6648C132.833 57.1761 132.712 56.5606 132.712 55.8182V50.2727H134.053V55.7273C134.053 56.3636 134.231 56.8712 134.587 57.25C134.946 57.6288 135.405 57.8182 135.962 57.8182C136.295 57.8182 136.634 57.733 136.979 57.5625C137.327 57.392 137.619 57.1307 137.854 56.7784C138.092 56.4261 138.212 55.9773 138.212 55.4318ZM143.349 53.75V59H142.009V50.2727H143.304V51.6364H143.418C143.622 51.1932 143.933 50.8371 144.349 50.5682C144.766 50.2955 145.304 50.1591 145.963 50.1591C146.554 50.1591 147.071 50.2803 147.514 50.5227C147.957 50.7614 148.302 51.125 148.548 51.6136C148.795 52.0985 148.918 52.7121 148.918 53.4545V59H147.577V53.5455C147.577 52.8598 147.399 52.3258 147.043 51.9432C146.687 51.5568 146.198 51.3636 145.577 51.3636C145.149 51.3636 144.766 51.4564 144.429 51.642C144.096 51.8277 143.832 52.0985 143.639 52.4545C143.446 52.8106 143.349 53.2424 143.349 53.75ZM157.209 53.75V59H155.868V50.2727H157.163V51.6364H157.277C157.482 51.1932 157.792 50.8371 158.209 50.5682C158.625 50.2955 159.163 50.1591 159.822 50.1591C160.413 50.1591 160.93 50.2803 161.374 50.5227C161.817 50.7614 162.161 51.125 162.408 51.6136C162.654 52.0985 162.777 52.7121 162.777 53.4545V59H161.436V53.5455C161.436 52.8598 161.258 52.3258 160.902 51.9432C160.546 51.5568 160.057 51.3636 159.436 51.3636C159.008 51.3636 158.625 51.4564 158.288 51.642C157.955 51.8277 157.692 52.0985 157.499 52.4545C157.305 52.8106 157.209 53.2424 157.209 53.75ZM168.773 59.1818C167.985 59.1818 167.294 58.9943 166.699 58.6193C166.108 58.2443 165.646 57.7197 165.312 57.0455C164.983 56.3712 164.818 55.5833 164.818 54.6818C164.818 53.7727 164.983 52.9792 165.312 52.3011C165.646 51.6231 166.108 51.0966 166.699 50.7216C167.294 50.3466 167.985 50.1591 168.773 50.1591C169.561 50.1591 170.25 50.3466 170.841 50.7216C171.436 51.0966 171.898 51.6231 172.227 52.3011C172.561 52.9792 172.727 53.7727 172.727 54.6818C172.727 55.5833 172.561 56.3712 172.227 57.0455C171.898 57.7197 171.436 58.2443 170.841 58.6193C170.25 58.9943 169.561 59.1818 168.773 59.1818ZM168.773 57.9773C169.371 57.9773 169.864 57.8239 170.25 57.517C170.636 57.2102 170.922 56.8068 171.108 56.3068C171.294 55.8068 171.386 55.2652 171.386 54.6818C171.386 54.0985 171.294 53.5549 171.108 53.0511C170.922 52.5473 170.636 52.1402 170.25 51.8295C169.864 51.5189 169.371 51.3636 168.773 51.3636C168.174 51.3636 167.682 51.5189 167.295 51.8295C166.909 52.1402 166.623 52.5473 166.438 53.0511C166.252 53.5549 166.159 54.0985 166.159 54.6818C166.159 55.2652 166.252 55.8068 166.438 56.3068C166.623 56.8068 166.909 57.2102 167.295 57.517C167.682 57.8239 168.174 57.9773 168.773 57.9773ZM174.774 59V50.2727H176.07V51.6364H176.183C176.365 51.1705 176.659 50.8087 177.064 50.5511C177.469 50.2898 177.956 50.1591 178.524 50.1591C179.1 50.1591 179.579 50.2898 179.962 50.5511C180.348 50.8087 180.649 51.1705 180.865 51.6364H180.956C181.179 51.1856 181.515 50.8277 181.962 50.5625C182.409 50.2936 182.945 50.1591 183.57 50.1591C184.35 50.1591 184.988 50.4034 185.484 50.892C185.981 51.3769 186.229 52.1326 186.229 53.1591V59H184.888V53.1591C184.888 52.5152 184.712 52.0549 184.359 51.7784C184.007 51.5019 183.592 51.3636 183.115 51.3636C182.501 51.3636 182.026 51.5492 181.689 51.9205C181.352 52.2879 181.183 52.7538 181.183 53.3182V59H179.82V53.0227C179.82 52.5265 179.659 52.1269 179.337 51.8239C179.015 51.517 178.6 51.3636 178.092 51.3636C177.744 51.3636 177.418 51.4564 177.115 51.642C176.816 51.8277 176.573 52.0852 176.388 52.4148C176.206 52.7405 176.115 53.1174 176.115 53.5455V59H174.774ZM188.862 59V47.3636H190.203V51.6591H190.317C190.415 51.5076 190.552 51.3144 190.726 51.0795C190.904 50.8409 191.158 50.6288 191.487 50.4432C191.821 50.2538 192.271 50.1591 192.839 50.1591C193.574 50.1591 194.222 50.3428 194.783 50.7102C195.343 51.0777 195.781 51.5985 196.095 52.2727C196.41 52.947 196.567 53.7424 196.567 54.6591C196.567 55.5833 196.41 56.3845 196.095 57.0625C195.781 57.7367 195.345 58.2595 194.788 58.6307C194.232 58.9981 193.589 59.1818 192.862 59.1818C192.302 59.1818 191.853 59.089 191.516 58.9034C191.179 58.714 190.919 58.5 190.737 58.2614C190.555 58.0189 190.415 57.8182 190.317 57.6591H190.158V59H188.862ZM190.18 54.6364C190.18 55.2955 190.277 55.8769 190.47 56.3807C190.663 56.8807 190.946 57.2727 191.317 57.5568C191.688 57.8371 192.143 57.9773 192.68 57.9773C193.241 57.9773 193.709 57.8295 194.084 57.5341C194.463 57.2348 194.747 56.8333 194.936 56.3295C195.129 55.822 195.226 55.2576 195.226 54.6364C195.226 54.0227 195.131 53.4697 194.942 52.9773C194.756 52.4811 194.474 52.089 194.095 51.8011C193.72 51.5095 193.249 51.3636 192.68 51.3636C192.135 51.3636 191.677 51.5019 191.305 51.7784C190.934 52.0511 190.654 52.4337 190.464 52.9261C190.275 53.4148 190.18 53.9848 190.18 54.6364ZM198.618 59V50.2727H199.913V51.5909H200.004C200.163 51.1591 200.451 50.8087 200.868 50.5398C201.285 50.2708 201.754 50.1364 202.277 50.1364C202.375 50.1364 202.499 50.1383 202.646 50.142C202.794 50.1458 202.906 50.1515 202.982 50.1591V51.5227C202.936 51.5114 202.832 51.4943 202.669 51.4716C202.51 51.4451 202.341 51.4318 202.163 51.4318C201.739 51.4318 201.36 51.5208 201.027 51.6989C200.697 51.8731 200.436 52.1155 200.243 52.4261C200.054 52.733 199.959 53.0833 199.959 53.4773V59H198.618ZM207.964 59.1818C207.124 59.1818 206.398 58.9962 205.788 58.625C205.182 58.25 204.714 57.7273 204.385 57.0568C204.059 56.3826 203.896 55.5985 203.896 54.7045C203.896 53.8106 204.059 53.0227 204.385 52.3409C204.714 51.6553 205.173 51.1212 205.76 50.7386C206.351 50.3523 207.04 50.1591 207.828 50.1591C208.283 50.1591 208.732 50.2348 209.175 50.3864C209.618 50.5379 210.021 50.7841 210.385 51.125C210.749 51.4621 211.038 51.9091 211.254 52.4659C211.47 53.0227 211.578 53.7083 211.578 54.5227V55.0909H204.851V53.9318H210.214C210.214 53.4394 210.116 53 209.919 52.6136C209.726 52.2273 209.449 51.9223 209.089 51.6989C208.733 51.4754 208.313 51.3636 207.828 51.3636C207.294 51.3636 206.832 51.4962 206.442 51.7614C206.055 52.0227 205.758 52.3636 205.55 52.7841C205.341 53.2045 205.237 53.6553 205.237 54.1364V54.9091C205.237 55.5682 205.351 56.1269 205.578 56.5852C205.809 57.0398 206.129 57.3864 206.538 57.625C206.947 57.8598 207.423 57.9773 207.964 57.9773C208.317 57.9773 208.635 57.928 208.919 57.8295C209.207 57.7273 209.455 57.5758 209.663 57.375C209.872 57.1705 210.033 56.9167 210.146 56.6136L211.442 56.9773C211.305 57.4167 211.076 57.803 210.754 58.1364C210.432 58.4659 210.035 58.7235 209.561 58.9091C209.088 59.0909 208.555 59.1818 207.964 59.1818ZM218.118 59V50.2727H219.413V51.5909H219.504C219.663 51.1591 219.951 50.8087 220.368 50.5398C220.785 50.2708 221.254 50.1364 221.777 50.1364C221.875 50.1364 221.999 50.1383 222.146 50.142C222.294 50.1458 222.406 50.1515 222.482 50.1591V51.5227C222.436 51.5114 222.332 51.4943 222.169 51.4716C222.01 51.4451 221.841 51.4318 221.663 51.4318C221.239 51.4318 220.86 51.5208 220.527 51.6989C220.197 51.8731 219.936 52.1155 219.743 52.4261C219.554 52.733 219.459 53.0833 219.459 53.4773V59H218.118ZM227.464 59.1818C226.624 59.1818 225.898 58.9962 225.288 58.625C224.682 58.25 224.214 57.7273 223.885 57.0568C223.559 56.3826 223.396 55.5985 223.396 54.7045C223.396 53.8106 223.559 53.0227 223.885 52.3409C224.214 51.6553 224.673 51.1212 225.26 50.7386C225.851 50.3523 226.54 50.1591 227.328 50.1591C227.783 50.1591 228.232 50.2348 228.675 50.3864C229.118 50.5379 229.521 50.7841 229.885 51.125C230.249 51.4621 230.538 51.9091 230.754 52.4659C230.97 53.0227 231.078 53.7083 231.078 54.5227V55.0909H224.351V53.9318H229.714C229.714 53.4394 229.616 53 229.419 52.6136C229.226 52.2273 228.949 51.9223 228.589 51.6989C228.233 51.4754 227.813 51.3636 227.328 51.3636C226.794 51.3636 226.332 51.4962 225.942 51.7614C225.555 52.0227 225.258 52.3636 225.05 52.7841C224.841 53.2045 224.737 53.6553 224.737 54.1364V54.9091C224.737 55.5682 224.851 56.1269 225.078 56.5852C225.309 57.0398 225.629 57.3864 226.038 57.625C226.447 57.8598 226.923 57.9773 227.464 57.9773C227.817 57.9773 228.135 57.928 228.419 57.8295C228.707 57.7273 228.955 57.5758 229.163 57.375C229.372 57.1705 229.533 56.9167 229.646 56.6136L230.942 56.9773C230.805 57.4167 230.576 57.803 230.254 58.1364C229.932 58.4659 229.535 58.7235 229.061 58.9091C228.588 59.0909 228.055 59.1818 227.464 59.1818ZM234.459 47.3636V59H233.118V47.3636H234.459ZM239.483 59.2045C238.93 59.2045 238.428 59.1004 237.977 58.892C237.527 58.6799 237.169 58.375 236.903 57.9773C236.638 57.5758 236.506 57.0909 236.506 56.5227C236.506 56.0227 236.604 55.6174 236.801 55.3068C236.998 54.9924 237.261 54.7462 237.591 54.5682C237.92 54.3902 238.284 54.2576 238.682 54.1705C239.083 54.0795 239.487 54.0076 239.892 53.9545C240.422 53.8864 240.852 53.8352 241.182 53.8011C241.515 53.7633 241.758 53.7008 241.909 53.6136C242.064 53.5265 242.142 53.375 242.142 53.1591V53.1136C242.142 52.553 241.989 52.1174 241.682 51.8068C241.379 51.4962 240.919 51.3409 240.301 51.3409C239.661 51.3409 239.159 51.4811 238.795 51.7614C238.432 52.0417 238.176 52.3409 238.028 52.6591L236.756 52.2045C236.983 51.6742 237.286 51.2614 237.665 50.9659C238.047 50.6667 238.464 50.4583 238.915 50.3409C239.369 50.2197 239.816 50.1591 240.256 50.1591C240.536 50.1591 240.858 50.1932 241.222 50.2614C241.589 50.3258 241.943 50.4602 242.284 50.6648C242.629 50.8693 242.915 51.178 243.142 51.5909C243.369 52.0038 243.483 52.5568 243.483 53.25V59H242.142V57.8182H242.074C241.983 58.0076 241.831 58.2102 241.619 58.4261C241.407 58.642 241.125 58.8258 240.773 58.9773C240.42 59.1288 239.991 59.2045 239.483 59.2045ZM239.688 58C240.218 58 240.665 57.8958 241.028 57.6875C241.396 57.4792 241.672 57.2102 241.858 56.8807C242.047 56.5511 242.142 56.2045 242.142 55.8409V54.6136C242.085 54.6818 241.96 54.7443 241.767 54.8011C241.578 54.8542 241.358 54.9015 241.108 54.9432C240.862 54.9811 240.621 55.0152 240.386 55.0455C240.155 55.072 239.968 55.0947 239.824 55.1136C239.475 55.1591 239.15 55.233 238.847 55.3352C238.547 55.4337 238.305 55.5833 238.119 55.7841C237.938 55.9811 237.847 56.25 237.847 56.5909C237.847 57.0568 238.019 57.4091 238.364 57.6477C238.712 57.8826 239.153 58 239.688 58ZM249.726 50.2727V51.4091H245.203V50.2727H249.726ZM246.521 48.1818H247.862V56.5C247.862 56.8788 247.917 57.1629 248.027 57.3523C248.141 57.5379 248.285 57.6629 248.459 57.7273C248.637 57.7879 248.824 57.8182 249.021 57.8182C249.169 57.8182 249.29 57.8106 249.385 57.7955C249.48 57.7765 249.555 57.7614 249.612 57.75L249.885 58.9545C249.794 58.9886 249.667 59.0227 249.504 59.0568C249.341 59.0947 249.135 59.1136 248.885 59.1136C248.506 59.1136 248.135 59.0322 247.771 58.8693C247.411 58.7064 247.112 58.4583 246.874 58.125C246.639 57.7917 246.521 57.3712 246.521 56.8636V48.1818ZM251.743 59V50.2727H253.084V59H251.743ZM252.425 48.8182C252.163 48.8182 251.938 48.7292 251.749 48.5511C251.563 48.3731 251.47 48.1591 251.47 47.9091C251.47 47.6591 251.563 47.4451 251.749 47.267C251.938 47.089 252.163 47 252.425 47C252.686 47 252.91 47.089 253.095 47.267C253.285 47.4451 253.379 47.6591 253.379 47.9091C253.379 48.1591 253.285 48.3731 253.095 48.5511C252.91 48.7292 252.686 48.8182 252.425 48.8182ZM259.426 50.2727V51.4091H254.722V50.2727H259.426ZM256.131 59V49.0682C256.131 48.5682 256.248 48.1515 256.483 47.8182C256.718 47.4848 257.023 47.2348 257.398 47.0682C257.773 46.9015 258.169 46.8182 258.585 46.8182C258.915 46.8182 259.184 46.8447 259.392 46.8977C259.6 46.9508 259.756 47 259.858 47.0455L259.472 48.2045C259.403 48.1818 259.309 48.1534 259.188 48.1193C259.07 48.0852 258.915 48.0682 258.722 48.0682C258.278 48.0682 257.958 48.1799 257.761 48.4034C257.568 48.6269 257.472 48.9545 257.472 49.3864V59H256.131ZM265.805 59V50.2727H267.101V51.5909H267.192C267.351 51.1591 267.639 50.8087 268.055 50.5398C268.472 50.2708 268.942 50.1364 269.464 50.1364C269.563 50.1364 269.686 50.1383 269.834 50.142C269.982 50.1458 270.093 50.1515 270.169 50.1591V51.5227C270.124 51.5114 270.019 51.4943 269.857 51.4716C269.697 51.4451 269.529 51.4318 269.351 51.4318C268.927 51.4318 268.548 51.5208 268.214 51.6989C267.885 51.8731 267.624 52.1155 267.43 52.4261C267.241 52.733 267.146 53.0833 267.146 53.4773V59H265.805ZM275.152 59.1818C274.311 59.1818 273.586 58.9962 272.976 58.625C272.37 58.25 271.902 57.7273 271.572 57.0568C271.247 56.3826 271.084 55.5985 271.084 54.7045C271.084 53.8106 271.247 53.0227 271.572 52.3409C271.902 51.6553 272.36 51.1212 272.947 50.7386C273.538 50.3523 274.228 50.1591 275.016 50.1591C275.47 50.1591 275.919 50.2348 276.362 50.3864C276.805 50.5379 277.209 50.7841 277.572 51.125C277.936 51.4621 278.226 51.9091 278.442 52.4659C278.658 53.0227 278.766 53.7083 278.766 54.5227V55.0909H272.038V53.9318H277.402C277.402 53.4394 277.304 53 277.107 52.6136C276.913 52.2273 276.637 51.9223 276.277 51.6989C275.921 51.4754 275.5 51.3636 275.016 51.3636C274.482 51.3636 274.019 51.4962 273.629 51.7614C273.243 52.0227 272.946 52.3636 272.737 52.7841C272.529 53.2045 272.425 53.6553 272.425 54.1364V54.9091C272.425 55.5682 272.538 56.1269 272.766 56.5852C272.997 57.0398 273.317 57.3864 273.726 57.625C274.135 57.8598 274.61 57.9773 275.152 57.9773C275.504 57.9773 275.822 57.928 276.107 57.8295C276.394 57.7273 276.643 57.5758 276.851 57.375C277.059 57.1705 277.22 56.9167 277.334 56.6136L278.629 56.9773C278.493 57.4167 278.264 57.803 277.942 58.1364C277.62 58.4659 277.222 58.7235 276.749 58.9091C276.275 59.0909 275.743 59.1818 275.152 59.1818ZM287.676 50.2727L284.449 59H283.085L279.858 50.2727H281.312L283.722 57.2273H283.812L286.222 50.2727H287.676ZM289.446 59V50.2727H290.787V59H289.446ZM290.128 48.8182C289.866 48.8182 289.641 48.7292 289.452 48.5511C289.266 48.3731 289.173 48.1591 289.173 47.9091C289.173 47.6591 289.266 47.4451 289.452 47.267C289.641 47.089 289.866 47 290.128 47C290.389 47 290.613 47.089 290.798 47.267C290.988 47.4451 291.082 47.6591 291.082 47.9091C291.082 48.1591 290.988 48.3731 290.798 48.5511C290.613 48.7292 290.389 48.8182 290.128 48.8182ZM296.902 59.1818C296.061 59.1818 295.336 58.9962 294.726 58.625C294.12 58.25 293.652 57.7273 293.322 57.0568C292.997 56.3826 292.834 55.5985 292.834 54.7045C292.834 53.8106 292.997 53.0227 293.322 52.3409C293.652 51.6553 294.11 51.1212 294.697 50.7386C295.288 50.3523 295.978 50.1591 296.766 50.1591C297.22 50.1591 297.669 50.2348 298.112 50.3864C298.555 50.5379 298.959 50.7841 299.322 51.125C299.686 51.4621 299.976 51.9091 300.192 52.4659C300.408 53.0227 300.516 53.7083 300.516 54.5227V55.0909H293.788V53.9318H299.152C299.152 53.4394 299.054 53 298.857 52.6136C298.663 52.2273 298.387 51.9223 298.027 51.6989C297.671 51.4754 297.25 51.3636 296.766 51.3636C296.232 51.3636 295.769 51.4962 295.379 51.7614C294.993 52.0227 294.696 52.3636 294.487 52.7841C294.279 53.2045 294.175 53.6553 294.175 54.1364V54.9091C294.175 55.5682 294.288 56.1269 294.516 56.5852C294.747 57.0398 295.067 57.3864 295.476 57.625C295.885 57.8598 296.36 57.9773 296.902 57.9773C297.254 57.9773 297.572 57.928 297.857 57.8295C298.144 57.7273 298.393 57.5758 298.601 57.375C298.809 57.1705 298.97 56.9167 299.084 56.6136L300.379 56.9773C300.243 57.4167 300.014 57.803 299.692 58.1364C299.37 58.4659 298.972 58.7235 298.499 58.9091C298.025 59.0909 297.493 59.1818 296.902 59.1818ZM303.896 53.75V59H302.555V50.2727H303.851V51.6364H303.964C304.169 51.1932 304.48 50.8371 304.896 50.5682C305.313 50.2955 305.851 50.1591 306.51 50.1591C307.101 50.1591 307.618 50.2803 308.061 50.5227C308.504 50.7614 308.849 51.125 309.095 51.6136C309.341 52.0985 309.464 52.7121 309.464 53.4545V59H308.124V53.5455C308.124 52.8598 307.946 52.3258 307.589 51.9432C307.233 51.5568 306.745 51.3636 306.124 51.3636C305.696 51.3636 305.313 51.4564 304.976 51.642C304.643 51.8277 304.379 52.0985 304.186 52.4545C303.993 52.8106 303.896 53.2424 303.896 53.75ZM315.71 50.2727V51.4091H311.188V50.2727H315.71ZM312.506 48.1818H313.847V56.5C313.847 56.8788 313.902 57.1629 314.011 57.3523C314.125 57.5379 314.269 57.6629 314.443 57.7273C314.621 57.7879 314.809 57.8182 315.006 57.8182C315.153 57.8182 315.275 57.8106 315.369 57.7955C315.464 57.7765 315.54 57.7614 315.597 57.75L315.869 58.9545C315.778 58.9886 315.652 59.0227 315.489 59.0568C315.326 59.0947 315.119 59.1136 314.869 59.1136C314.491 59.1136 314.119 59.0322 313.756 58.8693C313.396 58.7064 313.097 58.4583 312.858 58.125C312.623 57.7917 312.506 57.3712 312.506 56.8636V48.1818ZM324.795 59.2045C324.242 59.2045 323.741 59.1004 323.29 58.892C322.839 58.6799 322.481 58.375 322.216 57.9773C321.951 57.5758 321.818 57.0909 321.818 56.5227C321.818 56.0227 321.917 55.6174 322.114 55.3068C322.311 54.9924 322.574 54.7462 322.903 54.5682C323.233 54.3902 323.597 54.2576 323.994 54.1705C324.396 54.0795 324.799 54.0076 325.205 53.9545C325.735 53.8864 326.165 53.8352 326.494 53.8011C326.828 53.7633 327.07 53.7008 327.222 53.6136C327.377 53.5265 327.455 53.375 327.455 53.1591V53.1136C327.455 52.553 327.301 52.1174 326.994 51.8068C326.691 51.4962 326.231 51.3409 325.614 51.3409C324.973 51.3409 324.472 51.4811 324.108 51.7614C323.744 52.0417 323.489 52.3409 323.341 52.6591L322.068 52.2045C322.295 51.6742 322.598 51.2614 322.977 50.9659C323.36 50.6667 323.777 50.4583 324.227 50.3409C324.682 50.2197 325.129 50.1591 325.568 50.1591C325.848 50.1591 326.17 50.1932 326.534 50.2614C326.902 50.3258 327.256 50.4602 327.597 50.6648C327.941 50.8693 328.227 51.178 328.455 51.5909C328.682 52.0038 328.795 52.5568 328.795 53.25V59H327.455V57.8182H327.386C327.295 58.0076 327.144 58.2102 326.932 58.4261C326.72 58.642 326.438 58.8258 326.085 58.9773C325.733 59.1288 325.303 59.2045 324.795 59.2045ZM325 58C325.53 58 325.977 57.8958 326.341 57.6875C326.708 57.4792 326.985 57.2102 327.17 56.8807C327.36 56.5511 327.455 56.2045 327.455 55.8409V54.6136C327.398 54.6818 327.273 54.7443 327.08 54.8011C326.89 54.8542 326.67 54.9015 326.42 54.9432C326.174 54.9811 325.934 55.0152 325.699 55.0455C325.468 55.072 325.28 55.0947 325.136 55.1136C324.788 55.1591 324.462 55.233 324.159 55.3352C323.86 55.4337 323.617 55.5833 323.432 55.7841C323.25 55.9811 323.159 56.25 323.159 56.5909C323.159 57.0568 323.331 57.4091 323.676 57.6477C324.025 57.8826 324.466 58 325 58ZM325.091 49.0909L323.318 46.4545H324.886L326.273 49.0909H325.091ZM338.311 59.2045C337.758 59.2045 337.256 59.1004 336.805 58.892C336.355 58.6799 335.997 58.375 335.732 57.9773C335.466 57.5758 335.334 57.0909 335.334 56.5227C335.334 56.0227 335.432 55.6174 335.629 55.3068C335.826 54.9924 336.089 54.7462 336.419 54.5682C336.749 54.3902 337.112 54.2576 337.51 54.1705C337.911 54.0795 338.315 54.0076 338.72 53.9545C339.25 53.8864 339.68 53.8352 340.01 53.8011C340.343 53.7633 340.586 53.7008 340.737 53.6136C340.893 53.5265 340.97 53.375 340.97 53.1591V53.1136C340.97 52.553 340.817 52.1174 340.51 51.8068C340.207 51.4962 339.747 51.3409 339.129 51.3409C338.489 51.3409 337.987 51.4811 337.624 51.7614C337.26 52.0417 337.004 52.3409 336.857 52.6591L335.584 52.2045C335.811 51.6742 336.114 51.2614 336.493 50.9659C336.875 50.6667 337.292 50.4583 337.743 50.3409C338.197 50.2197 338.644 50.1591 339.084 50.1591C339.364 50.1591 339.686 50.1932 340.05 50.2614C340.417 50.3258 340.771 50.4602 341.112 50.6648C341.457 50.8693 341.743 51.178 341.97 51.5909C342.197 52.0038 342.311 52.5568 342.311 53.25V59H340.97V57.8182H340.902C340.811 58.0076 340.66 58.2102 340.447 58.4261C340.235 58.642 339.953 58.8258 339.601 58.9773C339.249 59.1288 338.819 59.2045 338.311 59.2045ZM338.516 58C339.046 58 339.493 57.8958 339.857 57.6875C340.224 57.4792 340.5 57.2102 340.686 56.8807C340.875 56.5511 340.97 56.2045 340.97 55.8409V54.6136C340.913 54.6818 340.788 54.7443 340.595 54.8011C340.406 54.8542 340.186 54.9015 339.936 54.9432C339.69 54.9811 339.449 55.0152 339.214 55.0455C338.983 55.072 338.796 55.0947 338.652 55.1136C338.304 55.1591 337.978 55.233 337.675 55.3352C337.375 55.4337 337.133 55.5833 336.947 55.7841C336.766 55.9811 336.675 56.25 336.675 56.5909C336.675 57.0568 336.847 57.4091 337.192 57.6477C337.54 57.8826 337.982 58 338.516 58ZM344.759 50.2727H346.099V59.6364C346.099 60.1742 346.007 60.6402 345.821 61.0341C345.639 61.428 345.363 61.733 344.991 61.9489C344.624 62.1648 344.16 62.2727 343.599 62.2727C343.554 62.2727 343.509 62.2727 343.463 62.2727C343.418 62.2727 343.372 62.2727 343.327 62.2727V61.0227C343.372 61.0227 343.414 61.0227 343.452 61.0227C343.49 61.0227 343.531 61.0227 343.577 61.0227C343.986 61.0227 344.285 60.9015 344.474 60.6591C344.664 60.4205 344.759 60.0795 344.759 59.6364V50.2727ZM345.418 48.8182C345.156 48.8182 344.931 48.7292 344.741 48.5511C344.556 48.3731 344.463 48.1591 344.463 47.9091C344.463 47.6591 344.556 47.4451 344.741 47.267C344.931 47.089 345.156 47 345.418 47C345.679 47 345.902 47.089 346.088 47.267C346.277 47.4451 346.372 47.6591 346.372 47.9091C346.372 48.1591 346.277 48.3731 346.088 48.5511C345.902 48.7292 345.679 48.8182 345.418 48.8182ZM352.101 59.1818C351.313 59.1818 350.622 58.9943 350.027 58.6193C349.436 58.2443 348.974 57.7197 348.641 57.0455C348.311 56.3712 348.146 55.5833 348.146 54.6818C348.146 53.7727 348.311 52.9792 348.641 52.3011C348.974 51.6231 349.436 51.0966 350.027 50.7216C350.622 50.3466 351.313 50.1591 352.101 50.1591C352.889 50.1591 353.578 50.3466 354.169 50.7216C354.764 51.0966 355.226 51.6231 355.555 52.3011C355.889 52.9792 356.055 53.7727 356.055 54.6818C356.055 55.5833 355.889 56.3712 355.555 57.0455C355.226 57.7197 354.764 58.2443 354.169 58.6193C353.578 58.9943 352.889 59.1818 352.101 59.1818ZM352.101 57.9773C352.699 57.9773 353.192 57.8239 353.578 57.517C353.964 57.2102 354.25 56.8068 354.436 56.3068C354.622 55.8068 354.714 55.2652 354.714 54.6818C354.714 54.0985 354.622 53.5549 354.436 53.0511C354.25 52.5473 353.964 52.1402 353.578 51.8295C353.192 51.5189 352.699 51.3636 352.101 51.3636C351.502 51.3636 351.01 51.5189 350.624 51.8295C350.237 52.1402 349.951 52.5473 349.766 53.0511C349.58 53.5549 349.487 54.0985 349.487 54.6818C349.487 55.2652 349.58 55.8068 349.766 56.3068C349.951 56.8068 350.237 57.2102 350.624 57.517C351.01 57.8239 351.502 57.9773 352.101 57.9773ZM363.602 55.4318V50.2727H364.943V59H363.602V57.5227H363.511C363.307 57.9659 362.989 58.3428 362.557 58.6534C362.125 58.9602 361.58 59.1136 360.92 59.1136C360.375 59.1136 359.89 58.9943 359.466 58.7557C359.042 58.5133 358.708 58.1496 358.466 57.6648C358.223 57.1761 358.102 56.5606 358.102 55.8182V50.2727H359.443V55.7273C359.443 56.3636 359.621 56.8712 359.977 57.25C360.337 57.6288 360.795 57.8182 361.352 57.8182C361.686 57.8182 362.025 57.733 362.369 57.5625C362.718 57.392 363.009 57.1307 363.244 56.7784C363.483 56.4261 363.602 55.9773 363.602 55.4318ZM371.195 50.2727V51.4091H366.672V50.2727H371.195ZM367.99 48.1818H369.331V56.5C369.331 56.8788 369.386 57.1629 369.496 57.3523C369.609 57.5379 369.753 57.6629 369.928 57.7273C370.106 57.7879 370.293 57.8182 370.49 57.8182C370.638 57.8182 370.759 57.8106 370.854 57.7955C370.948 57.7765 371.024 57.7614 371.081 57.75L371.354 58.9545C371.263 58.9886 371.136 59.0227 370.973 59.0568C370.81 59.0947 370.604 59.1136 370.354 59.1136C369.975 59.1136 369.604 59.0322 369.24 58.8693C368.88 58.7064 368.581 58.4583 368.342 58.125C368.107 57.7917 367.99 57.3712 367.99 56.8636V48.1818ZM376.777 59.1818C375.936 59.1818 375.211 58.9962 374.601 58.625C373.995 58.25 373.527 57.7273 373.197 57.0568C372.872 56.3826 372.709 55.5985 372.709 54.7045C372.709 53.8106 372.872 53.0227 373.197 52.3409C373.527 51.6553 373.985 51.1212 374.572 50.7386C375.163 50.3523 375.853 50.1591 376.641 50.1591C377.095 50.1591 377.544 50.2348 377.987 50.3864C378.43 50.5379 378.834 50.7841 379.197 51.125C379.561 51.4621 379.851 51.9091 380.067 52.4659C380.283 53.0227 380.391 53.7083 380.391 54.5227V55.0909H373.663V53.9318H379.027C379.027 53.4394 378.929 53 378.732 52.6136C378.538 52.2273 378.262 51.9223 377.902 51.6989C377.546 51.4754 377.125 51.3636 376.641 51.3636C376.107 51.3636 375.644 51.4962 375.254 51.7614C374.868 52.0227 374.571 52.3636 374.362 52.7841C374.154 53.2045 374.05 53.6553 374.05 54.1364V54.9091C374.05 55.5682 374.163 56.1269 374.391 56.5852C374.622 57.0398 374.942 57.3864 375.351 57.625C375.76 57.8598 376.235 57.9773 376.777 57.9773C377.129 57.9773 377.447 57.928 377.732 57.8295C378.019 57.7273 378.268 57.5758 378.476 57.375C378.684 57.1705 378.845 56.9167 378.959 56.6136L380.254 56.9773C380.118 57.4167 379.889 57.803 379.567 58.1364C379.245 58.4659 378.847 58.7235 378.374 58.9091C377.9 59.0909 377.368 59.1818 376.777 59.1818ZM382.43 59V50.2727H383.726V51.5909H383.817C383.976 51.1591 384.264 50.8087 384.68 50.5398C385.097 50.2708 385.567 50.1364 386.089 50.1364C386.188 50.1364 386.311 50.1383 386.459 50.142C386.607 50.1458 386.718 50.1515 386.794 50.1591V51.5227C386.749 51.5114 386.644 51.4943 386.482 51.4716C386.322 51.4451 386.154 51.4318 385.976 51.4318C385.552 51.4318 385.173 51.5208 384.839 51.6989C384.51 51.8731 384.249 52.1155 384.055 52.4261C383.866 52.733 383.771 53.0833 383.771 53.4773V59H382.43ZM399.065 52.2273L397.861 52.5682C397.785 52.3674 397.673 52.1723 397.526 51.983C397.382 51.7898 397.185 51.6307 396.935 51.5057C396.685 51.3807 396.365 51.3182 395.974 51.3182C395.44 51.3182 394.995 51.4413 394.639 51.6875C394.287 51.9299 394.111 52.2386 394.111 52.6136C394.111 52.947 394.232 53.2102 394.474 53.4034C394.717 53.5966 395.096 53.7576 395.611 53.8864L396.906 54.2045C397.687 54.3939 398.268 54.6837 398.651 55.0739C399.033 55.4602 399.224 55.9583 399.224 56.5682C399.224 57.0682 399.08 57.5152 398.793 57.9091C398.509 58.303 398.111 58.6136 397.599 58.8409C397.088 59.0682 396.493 59.1818 395.815 59.1818C394.925 59.1818 394.188 58.9886 393.605 58.6023C393.022 58.2159 392.652 57.6515 392.497 56.9091L393.77 56.5909C393.891 57.0606 394.12 57.4129 394.457 57.6477C394.798 57.8826 395.243 58 395.793 58C396.418 58 396.914 57.8674 397.281 57.6023C397.652 57.3333 397.838 57.0114 397.838 56.6364C397.838 56.3333 397.732 56.0795 397.52 55.875C397.308 55.6667 396.982 55.5114 396.543 55.4091L395.088 55.0682C394.289 54.8788 393.702 54.5852 393.327 54.1875C392.955 53.786 392.77 53.2841 392.77 52.6818C392.77 52.1894 392.908 51.7538 393.185 51.375C393.465 50.9962 393.846 50.6989 394.327 50.483C394.812 50.267 395.361 50.1591 395.974 50.1591C396.838 50.1591 397.516 50.3485 398.009 50.7273C398.505 51.1061 398.857 51.6061 399.065 52.2273ZM404.788 59.1818C404 59.1818 403.309 58.9943 402.714 58.6193C402.124 58.2443 401.661 57.7197 401.328 57.0455C400.999 56.3712 400.834 55.5833 400.834 54.6818C400.834 53.7727 400.999 52.9792 401.328 52.3011C401.661 51.6231 402.124 51.0966 402.714 50.7216C403.309 50.3466 404 50.1591 404.788 50.1591C405.576 50.1591 406.266 50.3466 406.857 50.7216C407.451 51.0966 407.913 51.6231 408.243 52.3011C408.576 52.9792 408.743 53.7727 408.743 54.6818C408.743 55.5833 408.576 56.3712 408.243 57.0455C407.913 57.7197 407.451 58.2443 406.857 58.6193C406.266 58.9943 405.576 59.1818 404.788 59.1818ZM404.788 57.9773C405.387 57.9773 405.879 57.8239 406.266 57.517C406.652 57.2102 406.938 56.8068 407.124 56.3068C407.309 55.8068 407.402 55.2652 407.402 54.6818C407.402 54.0985 407.309 53.5549 407.124 53.0511C406.938 52.5473 406.652 52.1402 406.266 51.8295C405.879 51.5189 405.387 51.3636 404.788 51.3636C404.19 51.3636 403.697 51.5189 403.311 51.8295C402.925 52.1402 402.639 52.5473 402.453 53.0511C402.268 53.5549 402.175 54.0985 402.175 54.6818C402.175 55.2652 402.268 55.8068 402.453 56.3068C402.639 56.8068 402.925 57.2102 403.311 57.517C403.697 57.8239 404.19 57.9773 404.788 57.9773ZM412.131 53.75V59H410.79V50.2727H412.085V51.6364H412.199C412.403 51.1932 412.714 50.8371 413.131 50.5682C413.547 50.2955 414.085 50.1591 414.744 50.1591C415.335 50.1591 415.852 50.2803 416.295 50.5227C416.739 50.7614 417.083 51.125 417.33 51.6136C417.576 52.0985 417.699 52.7121 417.699 53.4545V59H416.358V53.5455C416.358 52.8598 416.18 52.3258 415.824 51.9432C415.468 51.5568 414.979 51.3636 414.358 51.3636C413.93 51.3636 413.547 51.4564 413.21 51.642C412.877 51.8277 412.614 52.0985 412.42 52.4545C412.227 52.8106 412.131 53.2424 412.131 53.75ZM428.195 59.1818C427.407 59.1818 426.715 58.9943 426.121 58.6193C425.53 58.2443 425.068 57.7197 424.734 57.0455C424.405 56.3712 424.24 55.5833 424.24 54.6818C424.24 53.7727 424.405 52.9792 424.734 52.3011C425.068 51.6231 425.53 51.0966 426.121 50.7216C426.715 50.3466 427.407 50.1591 428.195 50.1591C428.982 50.1591 429.672 50.3466 430.263 50.7216C430.857 51.0966 431.32 51.6231 431.649 52.3011C431.982 52.9792 432.149 53.7727 432.149 54.6818C432.149 55.5833 431.982 56.3712 431.649 57.0455C431.32 57.7197 430.857 58.2443 430.263 58.6193C429.672 58.9943 428.982 59.1818 428.195 59.1818ZM428.195 57.9773C428.793 57.9773 429.286 57.8239 429.672 57.517C430.058 57.2102 430.344 56.8068 430.53 56.3068C430.715 55.8068 430.808 55.2652 430.808 54.6818C430.808 54.0985 430.715 53.5549 430.53 53.0511C430.344 52.5473 430.058 52.1402 429.672 51.8295C429.286 51.5189 428.793 51.3636 428.195 51.3636C427.596 51.3636 427.104 51.5189 426.717 51.8295C426.331 52.1402 426.045 52.5473 425.859 53.0511C425.674 53.5549 425.581 54.0985 425.581 54.6818C425.581 55.2652 425.674 55.8068 425.859 56.3068C426.045 56.8068 426.331 57.2102 426.717 57.517C427.104 57.8239 427.596 57.9773 428.195 57.9773ZM434.196 62.2727V50.2727H435.491V51.6591H435.651C435.749 51.5076 435.885 51.3144 436.06 51.0795C436.238 50.8409 436.491 50.6288 436.821 50.4432C437.154 50.2538 437.605 50.1591 438.173 50.1591C438.908 50.1591 439.556 50.3428 440.116 50.7102C440.677 51.0777 441.115 51.5985 441.429 52.2727C441.743 52.947 441.901 53.7424 441.901 54.6591C441.901 55.5833 441.743 56.3845 441.429 57.0625C441.115 57.7367 440.679 58.2595 440.122 58.6307C439.565 58.9981 438.923 59.1818 438.196 59.1818C437.635 59.1818 437.187 59.089 436.849 58.9034C436.512 58.714 436.253 58.5 436.071 58.2614C435.889 58.0189 435.749 57.8182 435.651 57.6591H435.537V62.2727H434.196ZM435.514 54.6364C435.514 55.2955 435.611 55.8769 435.804 56.3807C435.997 56.8807 436.279 57.2727 436.651 57.5568C437.022 57.8371 437.476 57.9773 438.014 57.9773C438.575 57.9773 439.043 57.8295 439.418 57.5341C439.796 57.2348 440.08 56.8333 440.27 56.3295C440.463 55.822 440.56 55.2576 440.56 54.6364C440.56 54.0227 440.465 53.4697 440.276 52.9773C440.09 52.4811 439.808 52.089 439.429 51.8011C439.054 51.5095 438.582 51.3636 438.014 51.3636C437.469 51.3636 437.01 51.5019 436.639 51.7784C436.268 52.0511 435.988 52.4337 435.798 52.9261C435.609 53.4148 435.514 53.9848 435.514 54.6364ZM443.946 62.2727V50.2727H445.241V51.6591H445.401C445.499 51.5076 445.635 51.3144 445.81 51.0795C445.988 50.8409 446.241 50.6288 446.571 50.4432C446.904 50.2538 447.355 50.1591 447.923 50.1591C448.658 50.1591 449.306 50.3428 449.866 50.7102C450.427 51.0777 450.865 51.5985 451.179 52.2727C451.493 52.947 451.651 53.7424 451.651 54.6591C451.651 55.5833 451.493 56.3845 451.179 57.0625C450.865 57.7367 450.429 58.2595 449.872 58.6307C449.315 58.9981 448.673 59.1818 447.946 59.1818C447.385 59.1818 446.937 59.089 446.599 58.9034C446.262 58.714 446.003 58.5 445.821 58.2614C445.639 58.0189 445.499 57.8182 445.401 57.6591H445.287V62.2727H443.946ZM445.264 54.6364C445.264 55.2955 445.361 55.8769 445.554 56.3807C445.747 56.8807 446.029 57.2727 446.401 57.5568C446.772 57.8371 447.226 57.9773 447.764 57.9773C448.325 57.9773 448.793 57.8295 449.168 57.5341C449.546 57.2348 449.83 56.8333 450.02 56.3295C450.213 55.822 450.31 55.2576 450.31 54.6364C450.31 54.0227 450.215 53.4697 450.026 52.9773C449.84 52.4811 449.558 52.089 449.179 51.8011C448.804 51.5095 448.332 51.3636 447.764 51.3636C447.219 51.3636 446.76 51.5019 446.389 51.7784C446.018 52.0511 445.738 52.4337 445.548 52.9261C445.359 53.4148 445.264 53.9848 445.264 54.6364ZM457.241 59.1818C456.454 59.1818 455.762 58.9943 455.168 58.6193C454.577 58.2443 454.115 57.7197 453.781 57.0455C453.452 56.3712 453.287 55.5833 453.287 54.6818C453.287 53.7727 453.452 52.9792 453.781 52.3011C454.115 51.6231 454.577 51.0966 455.168 50.7216C455.762 50.3466 456.454 50.1591 457.241 50.1591C458.029 50.1591 458.719 50.3466 459.31 50.7216C459.904 51.0966 460.366 51.6231 460.696 52.3011C461.029 52.9792 461.196 53.7727 461.196 54.6818C461.196 55.5833 461.029 56.3712 460.696 57.0455C460.366 57.7197 459.904 58.2443 459.31 58.6193C458.719 58.9943 458.029 59.1818 457.241 59.1818ZM457.241 57.9773C457.84 57.9773 458.332 57.8239 458.719 57.517C459.105 57.2102 459.391 56.8068 459.577 56.3068C459.762 55.8068 459.855 55.2652 459.855 54.6818C459.855 54.0985 459.762 53.5549 459.577 53.0511C459.391 52.5473 459.105 52.1402 458.719 51.8295C458.332 51.5189 457.84 51.3636 457.241 51.3636C456.643 51.3636 456.151 51.5189 455.764 51.8295C455.378 52.1402 455.092 52.5473 454.906 53.0511C454.721 53.5549 454.628 54.0985 454.628 54.6818C454.628 55.2652 454.721 55.8068 454.906 56.3068C455.092 56.8068 455.378 57.2102 455.764 57.517C456.151 57.8239 456.643 57.9773 457.241 57.9773ZM469.425 52.2273L468.22 52.5682C468.144 52.3674 468.033 52.1723 467.885 51.983C467.741 51.7898 467.544 51.6307 467.294 51.5057C467.044 51.3807 466.724 51.3182 466.334 51.3182C465.8 51.3182 465.355 51.4413 464.999 51.6875C464.646 51.9299 464.47 52.2386 464.47 52.6136C464.47 52.947 464.591 53.2102 464.834 53.4034C465.076 53.5966 465.455 53.7576 465.97 53.8864L467.266 54.2045C468.046 54.3939 468.627 54.6837 469.01 55.0739C469.393 55.4602 469.584 55.9583 469.584 56.5682C469.584 57.0682 469.44 57.5152 469.152 57.9091C468.868 58.303 468.47 58.6136 467.959 58.8409C467.447 59.0682 466.853 59.1818 466.175 59.1818C465.285 59.1818 464.548 58.9886 463.964 58.6023C463.381 58.2159 463.012 57.6515 462.857 56.9091L464.129 56.5909C464.25 57.0606 464.48 57.4129 464.817 57.6477C465.158 57.8826 465.603 58 466.152 58C466.777 58 467.273 57.8674 467.641 57.6023C468.012 57.3333 468.197 57.0114 468.197 56.6364C468.197 56.3333 468.091 56.0795 467.879 55.875C467.667 55.6667 467.341 55.5114 466.902 55.4091L465.447 55.0682C464.648 54.8788 464.061 54.5852 463.686 54.1875C463.315 53.786 463.129 53.2841 463.129 52.6818C463.129 52.1894 463.268 51.7538 463.544 51.375C463.824 50.9962 464.205 50.6989 464.686 50.483C465.171 50.267 465.72 50.1591 466.334 50.1591C467.197 50.1591 467.875 50.3485 468.368 50.7273C468.864 51.1061 469.216 51.6061 469.425 52.2273ZM475.261 59.1818C474.42 59.1818 473.695 58.9962 473.085 58.625C472.479 58.25 472.011 57.7273 471.682 57.0568C471.356 56.3826 471.193 55.5985 471.193 54.7045C471.193 53.8106 471.356 53.0227 471.682 52.3409C472.011 51.6553 472.47 51.1212 473.057 50.7386C473.648 50.3523 474.337 50.1591 475.125 50.1591C475.58 50.1591 476.028 50.2348 476.472 50.3864C476.915 50.5379 477.318 50.7841 477.682 51.125C478.045 51.4621 478.335 51.9091 478.551 52.4659C478.767 53.0227 478.875 53.7083 478.875 54.5227V55.0909H472.148V53.9318H477.511C477.511 53.4394 477.413 53 477.216 52.6136C477.023 52.2273 476.746 51.9223 476.386 51.6989C476.03 51.4754 475.61 51.3636 475.125 51.3636C474.591 51.3636 474.129 51.4962 473.739 51.7614C473.352 52.0227 473.055 52.3636 472.847 52.7841C472.638 53.2045 472.534 53.6553 472.534 54.1364V54.9091C472.534 55.5682 472.648 56.1269 472.875 56.5852C473.106 57.0398 473.426 57.3864 473.835 57.625C474.244 57.8598 474.72 57.9773 475.261 57.9773C475.614 57.9773 475.932 57.928 476.216 57.8295C476.504 57.7273 476.752 57.5758 476.96 57.375C477.169 57.1705 477.33 56.9167 477.443 56.6136L478.739 56.9773C478.602 57.4167 478.373 57.803 478.051 58.1364C477.729 58.4659 477.331 58.7235 476.858 58.9091C476.384 59.0909 475.852 59.1818 475.261 59.1818ZM474.443 49.0909L475.83 46.4545H477.398L475.625 49.0909H474.443ZM481.892 59.0909C481.612 59.0909 481.371 58.9905 481.17 58.7898C480.97 58.589 480.869 58.3485 480.869 58.0682C480.869 57.7879 480.97 57.5473 481.17 57.3466C481.371 57.1458 481.612 57.0455 481.892 57.0455C482.172 57.0455 482.413 57.1458 482.614 57.3466C482.814 57.5473 482.915 57.7879 482.915 58.0682C482.915 58.2538 482.867 58.4242 482.773 58.5795C482.682 58.7348 482.559 58.8598 482.403 58.9545C482.252 59.0455 482.081 59.0909 481.892 59.0909Z" fill="#404040"/>
<rect width="40" height="40" rx="20" fill="white"/>
<path d="M19.25 32.35L27.05 17.5H21.05V7.7L12.9 22.5H19.25V32.35ZM20 40C17.2667 40 14.6833 39.475 12.25 38.425C9.81667 37.375 7.69167 35.9417 5.875 34.125C4.05833 32.3083 2.625 30.1833 1.575 27.75C0.525 25.3167 0 22.7333 0 20C0 17.2333 0.525 14.6333 1.575 12.2C2.625 9.76667 4.05833 7.65 5.875 5.85C7.69167 4.05 9.81667 2.625 12.25 1.575C14.6833 0.525 17.2667 0 20 0C22.7667 0 25.3667 0.525 27.8 1.575C30.2333 2.625 32.35 4.05 34.15 5.85C35.95 7.65 37.375 9.76667 38.425 12.2C39.475 14.6333 40 17.2333 40 20C40 22.7333 39.475 25.3167 38.425 27.75C37.375 30.1833 35.95 32.3083 34.15 34.125C32.35 35.9417 30.2333 37.375 27.8 38.425C25.3667 39.475 22.7667 40 20 40ZM20 37C24.7333 37 28.75 35.3417 32.05 32.025C35.35 28.7083 37 24.7 37 20C37 15.2667 35.35 11.25 32.05 7.95C28.75 4.65 24.7333 3 20 3C15.3 3 11.2917 4.65 7.975 7.95C4.65833 11.25 3 15.2667 3 20C3 24.7 4.65833 28.7083 7.975 32.025C11.2917 35.3417 15.3 37 20 37Z" fill="#FFAC00"/>
<rect x="20" y="96.7439" width="840" height="164" rx="8" fill="#F9F9FB"/>
<path d="M51.1477 121.744V110.108H58.7159V111.875H53.2557V115.034H58.3239V116.801H53.2557V119.977H58.7614V121.744H51.1477ZM62.4574 113.017L64.2188 116.238L66.0085 113.017H68.1847L65.554 117.38L68.2301 121.744H66.0653L64.2188 118.602L62.3892 121.744H60.2074L62.8665 117.38L60.2756 113.017H62.4574ZM73.3111 121.914C72.4361 121.914 71.6804 121.733 71.044 121.369C70.4115 121.001 69.9247 120.483 69.5838 119.812C69.2429 119.138 69.0724 118.344 69.0724 117.431C69.0724 116.534 69.2429 115.746 69.5838 115.068C69.9285 114.386 70.4096 113.856 71.027 113.477C71.6444 113.094 72.3698 112.903 73.2031 112.903C73.741 112.903 74.2486 112.99 74.7259 113.164C75.2069 113.335 75.6312 113.6 75.9986 113.96C76.3698 114.32 76.6615 114.778 76.8736 115.335C77.0857 115.888 77.1918 116.547 77.1918 117.312V117.943H70.0384V116.556H75.2202C75.2164 116.162 75.1312 115.812 74.9645 115.505C74.7978 115.195 74.5649 114.95 74.2656 114.772C73.9702 114.594 73.6255 114.505 73.2315 114.505C72.8111 114.505 72.4418 114.608 72.1236 114.812C71.8054 115.013 71.5573 115.278 71.3793 115.608C71.205 115.933 71.116 116.291 71.1122 116.681V117.892C71.1122 118.399 71.205 118.835 71.3906 119.198C71.5762 119.558 71.8357 119.835 72.169 120.028C72.5024 120.217 72.8925 120.312 73.3395 120.312C73.6387 120.312 73.9096 120.27 74.152 120.187C74.3944 120.1 74.6046 119.973 74.7827 119.806C74.9607 119.64 75.0952 119.433 75.1861 119.187L77.1065 119.403C76.9853 119.911 76.7543 120.354 76.4134 120.733C76.0762 121.108 75.6444 121.399 75.1179 121.608C74.5914 121.812 73.9891 121.914 73.3111 121.914ZM78.9318 121.744V113.017H80.8977V114.5H81C81.1818 114 81.483 113.609 81.9034 113.329C82.3239 113.045 82.8258 112.903 83.4091 112.903C84 112.903 84.4981 113.047 84.9034 113.335C85.3125 113.619 85.6004 114.007 85.767 114.5H85.858C86.0511 114.015 86.3769 113.628 86.8352 113.34C87.2973 113.049 87.8447 112.903 88.4773 112.903C89.2803 112.903 89.9356 113.157 90.4432 113.664C90.9508 114.172 91.2045 114.912 91.2045 115.886V121.744H89.142V116.204C89.142 115.662 88.9981 115.267 88.7102 115.017C88.4223 114.763 88.0701 114.636 87.6534 114.636C87.1572 114.636 86.7689 114.791 86.4886 115.102C86.2121 115.409 86.0739 115.808 86.0739 116.301V121.744H84.0568V116.119C84.0568 115.668 83.9205 115.308 83.6477 115.039C83.3788 114.77 83.0265 114.636 82.5909 114.636C82.2955 114.636 82.0265 114.712 81.7841 114.863C81.5417 115.011 81.3485 115.221 81.2045 115.494C81.0606 115.763 80.9886 116.077 80.9886 116.437V121.744H78.9318ZM93.2912 125.017V113.017H95.3139V114.46H95.4332C95.5393 114.248 95.6889 114.022 95.8821 113.784C96.0753 113.541 96.3366 113.335 96.6662 113.164C96.9957 112.99 97.4162 112.903 97.9276 112.903C98.6018 112.903 99.2098 113.075 99.7514 113.42C100.297 113.761 100.729 114.267 101.047 114.937C101.369 115.604 101.53 116.422 101.53 117.392C101.53 118.35 101.373 119.164 101.058 119.835C100.744 120.505 100.316 121.017 99.7741 121.369C99.2325 121.721 98.6188 121.897 97.9332 121.897C97.4332 121.897 97.0185 121.814 96.6889 121.647C96.3594 121.481 96.0942 121.28 95.8935 121.045C95.6965 120.806 95.5431 120.581 95.4332 120.369H95.348V125.017H93.2912ZM95.3082 117.38C95.3082 117.945 95.3878 118.439 95.5469 118.863C95.7098 119.287 95.9427 119.619 96.2457 119.858C96.5526 120.092 96.9238 120.21 97.3594 120.21C97.8139 120.21 98.1946 120.089 98.5014 119.846C98.8082 119.6 99.0393 119.265 99.1946 118.84C99.3537 118.412 99.4332 117.926 99.4332 117.38C99.4332 116.839 99.3556 116.358 99.2003 115.937C99.045 115.517 98.8139 115.187 98.5071 114.948C98.2003 114.71 97.8177 114.59 97.3594 114.59C96.92 114.59 96.5469 114.706 96.2401 114.937C95.9332 115.168 95.7003 115.492 95.5412 115.909C95.3859 116.325 95.3082 116.816 95.3082 117.38ZM105.348 110.108V121.744H103.291V110.108H105.348ZM111.327 121.914C110.452 121.914 109.696 121.733 109.06 121.369C108.427 121.001 107.94 120.483 107.599 119.812C107.259 119.138 107.088 118.344 107.088 117.431C107.088 116.534 107.259 115.746 107.599 115.068C107.944 114.386 108.425 113.856 109.043 113.477C109.66 113.094 110.385 112.903 111.219 112.903C111.757 112.903 112.264 112.99 112.741 113.164C113.223 113.335 113.647 113.6 114.014 113.96C114.385 114.32 114.677 114.778 114.889 115.335C115.101 115.888 115.207 116.547 115.207 117.312V117.943H108.054V116.556H113.236C113.232 116.162 113.147 115.812 112.98 115.505C112.813 115.195 112.58 114.95 112.281 114.772C111.986 114.594 111.641 114.505 111.247 114.505C110.827 114.505 110.457 114.608 110.139 114.812C109.821 115.013 109.573 115.278 109.395 115.608C109.221 115.933 109.132 116.291 109.128 116.681V117.892C109.128 118.399 109.221 118.835 109.406 119.198C109.592 119.558 109.851 119.835 110.185 120.028C110.518 120.217 110.908 120.312 111.355 120.312C111.654 120.312 111.925 120.27 112.168 120.187C112.41 120.1 112.62 119.973 112.798 119.806C112.976 119.64 113.111 119.433 113.202 119.187L115.122 119.403C115.001 119.911 114.77 120.354 114.429 120.733C114.092 121.108 113.66 121.399 113.134 121.608C112.607 121.812 112.005 121.914 111.327 121.914ZM118.214 121.869C117.87 121.869 117.574 121.748 117.328 121.505C117.082 121.263 116.961 120.967 116.964 120.619C116.961 120.278 117.082 119.986 117.328 119.744C117.574 119.501 117.87 119.38 118.214 119.38C118.548 119.38 118.838 119.501 119.084 119.744C119.334 119.986 119.461 120.278 119.464 120.619C119.461 120.85 119.4 121.06 119.283 121.25C119.169 121.439 119.018 121.59 118.828 121.704C118.643 121.814 118.438 121.869 118.214 121.869ZM118.214 115.642C117.87 115.642 117.574 115.52 117.328 115.278C117.082 115.032 116.961 114.736 116.964 114.392C116.961 114.051 117.082 113.759 117.328 113.517C117.574 113.27 117.87 113.147 118.214 113.147C118.548 113.147 118.838 113.27 119.084 113.517C119.334 113.759 119.461 114.051 119.464 114.392C119.461 114.619 119.4 114.827 119.283 115.017C119.169 115.206 119.018 115.358 118.828 115.471C118.643 115.585 118.438 115.642 118.214 115.642ZM60.7727 137.744H59.3636C59.2803 137.339 59.1345 136.983 58.9261 136.676C58.7216 136.369 58.4716 136.111 58.1761 135.903C57.8845 135.691 57.5606 135.532 57.2045 135.426C56.8485 135.32 56.4773 135.267 56.0909 135.267C55.3864 135.267 54.7481 135.445 54.1761 135.801C53.608 136.157 53.1553 136.681 52.8182 137.375C52.4848 138.068 52.3182 138.918 52.3182 139.926C52.3182 140.933 52.4848 141.784 52.8182 142.477C53.1553 143.17 53.608 143.695 54.1761 144.051C54.7481 144.407 55.3864 144.585 56.0909 144.585C56.4773 144.585 56.8485 144.532 57.2045 144.426C57.5606 144.32 57.8845 144.162 58.1761 143.954C58.4716 143.742 58.7216 143.483 58.9261 143.176C59.1345 142.865 59.2803 142.509 59.3636 142.108H60.7727C60.6667 142.702 60.4735 143.234 60.1932 143.704C59.9129 144.174 59.5644 144.573 59.1477 144.903C58.7311 145.229 58.2633 145.477 57.7443 145.647C57.2292 145.818 56.678 145.903 56.0909 145.903C55.0985 145.903 54.2159 145.661 53.4432 145.176C52.6705 144.691 52.0625 144.001 51.6193 143.108C51.1761 142.214 50.9545 141.153 50.9545 139.926C50.9545 138.698 51.1761 137.638 51.6193 136.744C52.0625 135.85 52.6705 135.161 53.4432 134.676C54.2159 134.191 55.0985 133.948 56.0909 133.948C56.678 133.948 57.2292 134.034 57.7443 134.204C58.2633 134.375 58.7311 134.625 59.1477 134.954C59.5644 135.28 59.9129 135.678 60.1932 136.147C60.4735 136.613 60.6667 137.145 60.7727 137.744ZM65.4361 145.948C64.883 145.948 64.3812 145.844 63.9304 145.636C63.4796 145.424 63.1217 145.119 62.8565 144.721C62.5914 144.32 62.4588 143.835 62.4588 143.267C62.4588 142.767 62.5573 142.361 62.7543 142.051C62.9512 141.736 63.2145 141.49 63.544 141.312C63.8736 141.134 64.2372 141.001 64.6349 140.914C65.0365 140.823 65.4399 140.751 65.8452 140.698C66.3755 140.63 66.8054 140.579 67.1349 140.545C67.4683 140.507 67.7107 140.445 67.8622 140.358C68.0175 140.27 68.0952 140.119 68.0952 139.903V139.858C68.0952 139.297 67.9418 138.861 67.6349 138.551C67.3319 138.24 66.8717 138.085 66.2543 138.085C65.6141 138.085 65.1122 138.225 64.7486 138.505C64.3849 138.786 64.1293 139.085 63.9815 139.403L62.7088 138.948C62.9361 138.418 63.2391 138.005 63.6179 137.71C64.0005 137.411 64.4171 137.202 64.8679 137.085C65.3224 136.964 65.7694 136.903 66.2088 136.903C66.4891 136.903 66.8111 136.937 67.1747 137.005C67.5421 137.07 67.8963 137.204 68.2372 137.409C68.5819 137.613 68.8679 137.922 69.0952 138.335C69.3224 138.748 69.4361 139.301 69.4361 139.994V145.744H68.0952V144.562H68.027C67.9361 144.751 67.7846 144.954 67.5724 145.17C67.3603 145.386 67.0781 145.57 66.7259 145.721C66.3736 145.873 65.9437 145.948 65.4361 145.948ZM65.6406 144.744C66.1709 144.744 66.6179 144.64 66.9815 144.431C67.349 144.223 67.6255 143.954 67.8111 143.625C68.0005 143.295 68.0952 142.948 68.0952 142.585V141.358C68.0384 141.426 67.9134 141.488 67.7202 141.545C67.5308 141.598 67.3111 141.645 67.0611 141.687C66.8149 141.725 66.5743 141.759 66.3395 141.789C66.1084 141.816 65.9209 141.839 65.777 141.858C65.4285 141.903 65.1027 141.977 64.7997 142.079C64.5005 142.178 64.258 142.327 64.0724 142.528C63.8906 142.725 63.7997 142.994 63.7997 143.335C63.7997 143.801 63.9721 144.153 64.3168 144.392C64.6652 144.626 65.1065 144.744 65.6406 144.744ZM73.2244 134.108V145.744H71.8835V134.108H73.2244ZM79.2259 145.926C78.4077 145.926 77.7031 145.733 77.1122 145.346C76.5213 144.96 76.0668 144.428 75.7486 143.75C75.4304 143.072 75.2713 142.297 75.2713 141.426C75.2713 140.539 75.4342 139.757 75.7599 139.079C76.0895 138.397 76.5478 137.865 77.1349 137.483C77.7259 137.096 78.4152 136.903 79.2031 136.903C79.8168 136.903 80.3698 137.017 80.8622 137.244C81.3546 137.471 81.758 137.789 82.0724 138.198C82.3868 138.608 82.5819 139.085 82.6577 139.63H81.3168C81.2145 139.233 80.9872 138.88 80.6349 138.573C80.2865 138.263 79.8168 138.108 79.2259 138.108C78.7031 138.108 78.2448 138.244 77.8509 138.517C77.4607 138.786 77.1558 139.166 76.9361 139.659C76.7202 140.147 76.6122 140.721 76.6122 141.38C76.6122 142.055 76.7183 142.642 76.9304 143.142C77.1463 143.642 77.4493 144.03 77.8395 144.306C78.2334 144.583 78.6955 144.721 79.2259 144.721C79.5743 144.721 79.8906 144.661 80.1747 144.539C80.4588 144.418 80.6993 144.244 80.8963 144.017C81.0933 143.789 81.2334 143.517 81.3168 143.198H82.6577C82.5819 143.714 82.3944 144.178 82.0952 144.59C81.7997 145 81.4077 145.325 80.919 145.568C80.4342 145.806 79.8698 145.926 79.2259 145.926ZM90.1179 142.176V137.017H91.4588V145.744H90.1179V144.267H90.027C89.8224 144.71 89.5043 145.087 89.0724 145.397C88.6406 145.704 88.0952 145.858 87.4361 145.858C86.8906 145.858 86.4058 145.738 85.9815 145.5C85.5573 145.257 85.224 144.894 84.9815 144.409C84.7391 143.92 84.6179 143.305 84.6179 142.562V137.017H85.9588V142.471C85.9588 143.108 86.1368 143.615 86.4929 143.994C86.8527 144.373 87.3111 144.562 87.8679 144.562C88.2012 144.562 88.5402 144.477 88.8849 144.306C89.2334 144.136 89.5251 143.875 89.7599 143.522C89.9986 143.17 90.1179 142.721 90.1179 142.176ZM95.2557 134.108V145.744H93.9148V134.108H95.2557ZM101.257 145.926C100.469 145.926 99.7779 145.738 99.1832 145.363C98.5923 144.988 98.1302 144.464 97.7969 143.789C97.4673 143.115 97.3026 142.327 97.3026 141.426C97.3026 140.517 97.4673 139.723 97.7969 139.045C98.1302 138.367 98.5923 137.84 99.1832 137.465C99.7779 137.09 100.469 136.903 101.257 136.903C102.045 136.903 102.734 137.09 103.325 137.465C103.92 137.84 104.382 138.367 104.712 139.045C105.045 139.723 105.212 140.517 105.212 141.426C105.212 142.327 105.045 143.115 104.712 143.789C104.382 144.464 103.92 144.988 103.325 145.363C102.734 145.738 102.045 145.926 101.257 145.926ZM101.257 144.721C101.856 144.721 102.348 144.568 102.734 144.261C103.121 143.954 103.407 143.551 103.592 143.051C103.778 142.551 103.871 142.009 103.871 141.426C103.871 140.842 103.778 140.299 103.592 139.795C103.407 139.291 103.121 138.884 102.734 138.573C102.348 138.263 101.856 138.108 101.257 138.108C100.659 138.108 100.166 138.263 99.7798 138.573C99.3935 138.884 99.1075 139.291 98.9219 139.795C98.7363 140.299 98.6435 140.842 98.6435 141.426C98.6435 142.009 98.7363 142.551 98.9219 143.051C99.1075 143.551 99.3935 143.954 99.7798 144.261C100.166 144.568 100.659 144.721 101.257 144.721ZM108.599 140.494V145.744H107.259V137.017H108.554V138.38H108.668C108.872 137.937 109.183 137.581 109.599 137.312C110.016 137.039 110.554 136.903 111.213 136.903C111.804 136.903 112.321 137.024 112.764 137.267C113.207 137.505 113.552 137.869 113.798 138.358C114.045 138.842 114.168 139.456 114.168 140.198V145.744H112.827V140.289C112.827 139.604 112.649 139.07 112.293 138.687C111.937 138.301 111.448 138.108 110.827 138.108C110.399 138.108 110.016 138.2 109.679 138.386C109.346 138.572 109.082 138.842 108.889 139.198C108.696 139.555 108.599 139.986 108.599 140.494ZM122.8 138.971L121.595 139.312C121.519 139.111 121.408 138.916 121.26 138.727C121.116 138.534 120.919 138.375 120.669 138.25C120.419 138.125 120.099 138.062 119.709 138.062C119.175 138.062 118.73 138.185 118.374 138.431C118.021 138.674 117.845 138.983 117.845 139.358C117.845 139.691 117.966 139.954 118.209 140.147C118.451 140.34 118.83 140.501 119.345 140.63L120.641 140.948C121.421 141.138 122.002 141.428 122.385 141.818C122.768 142.204 122.959 142.702 122.959 143.312C122.959 143.812 122.815 144.259 122.527 144.653C122.243 145.047 121.845 145.358 121.334 145.585C120.822 145.812 120.228 145.926 119.55 145.926C118.66 145.926 117.923 145.733 117.339 145.346C116.756 144.96 116.387 144.395 116.232 143.653L117.504 143.335C117.625 143.805 117.855 144.157 118.192 144.392C118.533 144.626 118.978 144.744 119.527 144.744C120.152 144.744 120.648 144.611 121.016 144.346C121.387 144.077 121.572 143.755 121.572 143.38C121.572 143.077 121.466 142.823 121.254 142.619C121.042 142.411 120.716 142.255 120.277 142.153L118.822 141.812C118.023 141.623 117.436 141.329 117.061 140.931C116.69 140.53 116.504 140.028 116.504 139.426C116.504 138.933 116.643 138.498 116.919 138.119C117.199 137.74 117.58 137.443 118.061 137.227C118.546 137.011 119.095 136.903 119.709 136.903C120.572 136.903 121.25 137.092 121.743 137.471C122.239 137.85 122.591 138.35 122.8 138.971ZM130.818 134.108V145.744H129.477V134.108H130.818ZM134.456 134.108V135.13C134.456 135.441 134.399 135.772 134.286 136.125C134.176 136.473 134.013 136.812 133.797 137.142C133.585 137.467 133.327 137.751 133.024 137.994L132.297 137.403C132.536 137.062 132.742 136.708 132.916 136.34C133.094 135.969 133.183 135.573 133.183 135.153V134.108H134.456ZM138.886 145.926C138.045 145.926 137.32 145.74 136.71 145.369C136.104 144.994 135.636 144.471 135.307 143.801C134.981 143.126 134.818 142.342 134.818 141.448C134.818 140.555 134.981 139.767 135.307 139.085C135.636 138.399 136.095 137.865 136.682 137.483C137.273 137.096 137.962 136.903 138.75 136.903C139.205 136.903 139.653 136.979 140.097 137.13C140.54 137.282 140.943 137.528 141.307 137.869C141.67 138.206 141.96 138.653 142.176 139.21C142.392 139.767 142.5 140.452 142.5 141.267V141.835H135.773V140.676H141.136C141.136 140.183 141.038 139.744 140.841 139.358C140.648 138.971 140.371 138.666 140.011 138.443C139.655 138.219 139.235 138.108 138.75 138.108C138.216 138.108 137.754 138.24 137.364 138.505C136.977 138.767 136.68 139.108 136.472 139.528C136.263 139.948 136.159 140.399 136.159 140.88V141.653C136.159 142.312 136.273 142.871 136.5 143.329C136.731 143.784 137.051 144.13 137.46 144.369C137.869 144.604 138.345 144.721 138.886 144.721C139.239 144.721 139.557 144.672 139.841 144.573C140.129 144.471 140.377 144.32 140.585 144.119C140.794 143.914 140.955 143.661 141.068 143.358L142.364 143.721C142.227 144.161 141.998 144.547 141.676 144.88C141.354 145.21 140.956 145.467 140.483 145.653C140.009 145.835 139.477 145.926 138.886 145.926ZM145.305 137.017L147.396 140.585L149.487 137.017H151.033L148.214 141.38L151.033 145.744H149.487L147.396 142.358L145.305 145.744H143.76L146.533 141.38L143.76 137.017H145.305ZM152.946 149.017V137.017H154.241V138.403H154.401C154.499 138.251 154.635 138.058 154.81 137.823C154.988 137.585 155.241 137.373 155.571 137.187C155.904 136.998 156.355 136.903 156.923 136.903C157.658 136.903 158.306 137.087 158.866 137.454C159.427 137.822 159.865 138.342 160.179 139.017C160.493 139.691 160.651 140.486 160.651 141.403C160.651 142.327 160.493 143.128 160.179 143.806C159.865 144.481 159.429 145.003 158.872 145.375C158.315 145.742 157.673 145.926 156.946 145.926C156.385 145.926 155.937 145.833 155.599 145.647C155.262 145.458 155.003 145.244 154.821 145.005C154.639 144.763 154.499 144.562 154.401 144.403H154.287V149.017H152.946ZM154.264 141.38C154.264 142.039 154.361 142.621 154.554 143.125C154.747 143.625 155.029 144.017 155.401 144.301C155.772 144.581 156.226 144.721 156.764 144.721C157.325 144.721 157.793 144.573 158.168 144.278C158.546 143.979 158.83 143.577 159.02 143.073C159.213 142.566 159.31 142.001 159.31 141.38C159.31 140.767 159.215 140.214 159.026 139.721C158.84 139.225 158.558 138.833 158.179 138.545C157.804 138.253 157.332 138.108 156.764 138.108C156.219 138.108 155.76 138.246 155.389 138.522C155.018 138.795 154.738 139.178 154.548 139.67C154.359 140.159 154.264 140.729 154.264 141.38ZM162.696 145.744V137.017H163.991V138.335H164.082C164.241 137.903 164.529 137.553 164.946 137.284C165.363 137.015 165.832 136.88 166.355 136.88C166.454 136.88 166.577 136.882 166.724 136.886C166.872 136.89 166.984 136.895 167.06 136.903V138.267C167.014 138.255 166.91 138.238 166.747 138.215C166.588 138.189 166.42 138.176 166.241 138.176C165.817 138.176 165.438 138.265 165.105 138.443C164.776 138.617 164.514 138.859 164.321 139.17C164.132 139.477 164.037 139.827 164.037 140.221V145.744H162.696ZM172.043 145.926C171.202 145.926 170.476 145.74 169.866 145.369C169.26 144.994 168.793 144.471 168.463 143.801C168.137 143.126 167.974 142.342 167.974 141.448C167.974 140.555 168.137 139.767 168.463 139.085C168.793 138.399 169.251 137.865 169.838 137.483C170.429 137.096 171.118 136.903 171.906 136.903C172.361 136.903 172.81 136.979 173.253 137.13C173.696 137.282 174.099 137.528 174.463 137.869C174.827 138.206 175.116 138.653 175.332 139.21C175.548 139.767 175.656 140.452 175.656 141.267V141.835H168.929V140.676H174.293C174.293 140.183 174.194 139.744 173.997 139.358C173.804 138.971 173.527 138.666 173.168 138.443C172.812 138.219 172.391 138.108 171.906 138.108C171.372 138.108 170.91 138.24 170.52 138.505C170.134 138.767 169.836 139.108 169.628 139.528C169.42 139.948 169.315 140.399 169.315 140.88V141.653C169.315 142.312 169.429 142.871 169.656 143.329C169.887 143.784 170.207 144.13 170.616 144.369C171.026 144.604 171.501 144.721 172.043 144.721C172.395 144.721 172.713 144.672 172.997 144.573C173.285 144.471 173.533 144.32 173.741 144.119C173.95 143.914 174.111 143.661 174.224 143.358L175.52 143.721C175.384 144.161 175.154 144.547 174.832 144.88C174.51 145.21 174.113 145.467 173.639 145.653C173.166 145.835 172.634 145.926 172.043 145.926ZM183.878 138.971L182.673 139.312C182.598 139.111 182.486 138.916 182.338 138.727C182.194 138.534 181.997 138.375 181.747 138.25C181.497 138.125 181.177 138.062 180.787 138.062C180.253 138.062 179.808 138.185 179.452 138.431C179.099 138.674 178.923 138.983 178.923 139.358C178.923 139.691 179.045 139.954 179.287 140.147C179.529 140.34 179.908 140.501 180.423 140.63L181.719 140.948C182.499 141.138 183.08 141.428 183.463 141.818C183.846 142.204 184.037 142.702 184.037 143.312C184.037 143.812 183.893 144.259 183.605 144.653C183.321 145.047 182.923 145.358 182.412 145.585C181.901 145.812 181.306 145.926 180.628 145.926C179.738 145.926 179.001 145.733 178.418 145.346C177.834 144.96 177.465 144.395 177.31 143.653L178.582 143.335C178.704 143.805 178.933 144.157 179.27 144.392C179.611 144.626 180.056 144.744 180.605 144.744C181.23 144.744 181.726 144.611 182.094 144.346C182.465 144.077 182.651 143.755 182.651 143.38C182.651 143.077 182.545 142.823 182.332 142.619C182.12 142.411 181.795 142.255 181.355 142.153L179.901 141.812C179.101 141.623 178.514 141.329 178.139 140.931C177.768 140.53 177.582 140.028 177.582 139.426C177.582 138.933 177.721 138.498 177.997 138.119C178.277 137.74 178.658 137.443 179.139 137.227C179.624 137.011 180.173 136.903 180.787 136.903C181.651 136.903 182.329 137.092 182.821 137.471C183.317 137.85 183.67 138.35 183.878 138.971ZM192.237 138.971L191.033 139.312C190.957 139.111 190.845 138.916 190.697 138.727C190.554 138.534 190.357 138.375 190.107 138.25C189.857 138.125 189.536 138.062 189.146 138.062C188.612 138.062 188.167 138.185 187.811 138.431C187.459 138.674 187.283 138.983 187.283 139.358C187.283 139.691 187.404 139.954 187.646 140.147C187.889 140.34 188.268 140.501 188.783 140.63L190.078 140.948C190.858 141.138 191.44 141.428 191.822 141.818C192.205 142.204 192.396 142.702 192.396 143.312C192.396 143.812 192.252 144.259 191.964 144.653C191.68 145.047 191.283 145.358 190.771 145.585C190.26 145.812 189.665 145.926 188.987 145.926C188.097 145.926 187.36 145.733 186.777 145.346C186.194 144.96 185.824 144.395 185.669 143.653L186.942 143.335C187.063 143.805 187.292 144.157 187.629 144.392C187.97 144.626 188.415 144.744 188.964 144.744C189.589 144.744 190.086 144.611 190.453 144.346C190.824 144.077 191.01 143.755 191.01 143.38C191.01 143.077 190.904 142.823 190.692 142.619C190.48 142.411 190.154 142.255 189.714 142.153L188.26 141.812C187.461 141.623 186.874 141.329 186.499 140.931C186.127 140.53 185.942 140.028 185.942 139.426C185.942 138.933 186.08 138.498 186.357 138.119C186.637 137.74 187.018 137.443 187.499 137.227C187.983 137.011 188.533 136.903 189.146 136.903C190.01 136.903 190.688 137.092 191.18 137.471C191.677 137.85 192.029 138.35 192.237 138.971ZM194.415 145.744V137.017H195.756V145.744H194.415ZM195.097 135.562C194.835 135.562 194.61 135.473 194.42 135.295C194.235 135.117 194.142 134.903 194.142 134.653C194.142 134.403 194.235 134.189 194.42 134.011C194.61 133.833 194.835 133.744 195.097 133.744C195.358 133.744 195.581 133.833 195.767 134.011C195.956 134.189 196.051 134.403 196.051 134.653C196.051 134.903 195.956 135.117 195.767 135.295C195.581 135.473 195.358 135.562 195.097 135.562ZM201.757 145.926C200.969 145.926 200.278 145.738 199.683 145.363C199.092 144.988 198.63 144.464 198.297 143.789C197.967 143.115 197.803 142.327 197.803 141.426C197.803 140.517 197.967 139.723 198.297 139.045C198.63 138.367 199.092 137.84 199.683 137.465C200.278 137.09 200.969 136.903 201.757 136.903C202.545 136.903 203.234 137.09 203.825 137.465C204.42 137.84 204.882 138.367 205.212 139.045C205.545 139.723 205.712 140.517 205.712 141.426C205.712 142.327 205.545 143.115 205.212 143.789C204.882 144.464 204.42 144.988 203.825 145.363C203.234 145.738 202.545 145.926 201.757 145.926ZM201.757 144.721C202.356 144.721 202.848 144.568 203.234 144.261C203.621 143.954 203.907 143.551 204.092 143.051C204.278 142.551 204.371 142.009 204.371 141.426C204.371 140.842 204.278 140.299 204.092 139.795C203.907 139.291 203.621 138.884 203.234 138.573C202.848 138.263 202.356 138.108 201.757 138.108C201.159 138.108 200.666 138.263 200.28 138.573C199.893 138.884 199.607 139.291 199.422 139.795C199.236 140.299 199.143 140.842 199.143 141.426C199.143 142.009 199.236 142.551 199.422 143.051C199.607 143.551 199.893 143.954 200.28 144.261C200.666 144.568 201.159 144.721 201.757 144.721ZM209.099 140.494V145.744H207.759V137.017H209.054V138.38H209.168C209.372 137.937 209.683 137.581 210.099 137.312C210.516 137.039 211.054 136.903 211.713 136.903C212.304 136.903 212.821 137.024 213.264 137.267C213.707 137.505 214.052 137.869 214.298 138.358C214.545 138.842 214.668 139.456 214.668 140.198V145.744H213.327V140.289C213.327 139.604 213.149 139.07 212.793 138.687C212.437 138.301 211.948 138.108 211.327 138.108C210.899 138.108 210.516 138.2 210.179 138.386C209.846 138.572 209.582 138.842 209.389 139.198C209.196 139.555 209.099 139.986 209.099 140.494ZM223.3 138.971L222.095 139.312C222.019 139.111 221.908 138.916 221.76 138.727C221.616 138.534 221.419 138.375 221.169 138.25C220.919 138.125 220.599 138.062 220.209 138.062C219.675 138.062 219.23 138.185 218.874 138.431C218.521 138.674 218.345 138.983 218.345 139.358C218.345 139.691 218.466 139.954 218.709 140.147C218.951 140.34 219.33 140.501 219.845 140.63L221.141 140.948C221.921 141.138 222.502 141.428 222.885 141.818C223.268 142.204 223.459 142.702 223.459 143.312C223.459 143.812 223.315 144.259 223.027 144.653C222.743 145.047 222.345 145.358 221.834 145.585C221.322 145.812 220.728 145.926 220.05 145.926C219.16 145.926 218.423 145.733 217.839 145.346C217.256 144.96 216.887 144.395 216.732 143.653L218.004 143.335C218.125 143.805 218.355 144.157 218.692 144.392C219.033 144.626 219.478 144.744 220.027 144.744C220.652 144.744 221.148 144.611 221.516 144.346C221.887 144.077 222.072 143.755 222.072 143.38C222.072 143.077 221.966 142.823 221.754 142.619C221.542 142.411 221.216 142.255 220.777 142.153L219.322 141.812C218.523 141.623 217.936 141.329 217.561 140.931C217.19 140.53 217.004 140.028 217.004 139.426C217.004 138.933 217.143 138.498 217.419 138.119C217.699 137.74 218.08 137.443 218.561 137.227C219.046 137.011 219.595 136.903 220.209 136.903C221.072 136.903 221.75 137.092 222.243 137.471C222.739 137.85 223.091 138.35 223.3 138.971ZM230.636 145.744H229.159L233.432 134.108H234.886L239.159 145.744H237.682L234.205 135.948H234.114L230.636 145.744ZM231.182 141.198H237.136V142.448H231.182V141.198ZM245.835 138.858V137.63H252.835V138.858H245.835ZM245.835 142.221V140.994H252.835V142.221H245.835ZM260.814 139.926C260.814 138.494 261 137.178 261.371 135.977C261.746 134.772 262.28 133.664 262.973 132.653H264.155C263.882 133.028 263.626 133.49 263.388 134.039C263.153 134.585 262.946 135.185 262.768 135.84C262.59 136.492 262.45 137.166 262.348 137.863C262.25 138.56 262.2 139.248 262.2 139.926C262.2 140.827 262.287 141.742 262.462 142.67C262.636 143.598 262.871 144.46 263.166 145.255C263.462 146.051 263.791 146.698 264.155 147.198H262.973C262.28 146.187 261.746 145.081 261.371 143.88C261 142.676 260.814 141.358 260.814 139.926ZM271.134 139.301V140.551H266.043V139.301H271.134ZM272.923 145.744V144.721L276.764 140.517C277.215 140.024 277.586 139.596 277.878 139.233C278.17 138.865 278.385 138.52 278.526 138.198C278.67 137.873 278.741 137.532 278.741 137.176C278.741 136.767 278.643 136.412 278.446 136.113C278.253 135.814 277.988 135.583 277.651 135.42C277.313 135.257 276.935 135.176 276.514 135.176C276.067 135.176 275.677 135.269 275.344 135.454C275.014 135.636 274.759 135.892 274.577 136.221C274.399 136.551 274.31 136.937 274.31 137.38H272.969C272.969 136.698 273.126 136.1 273.44 135.585C273.755 135.07 274.183 134.668 274.724 134.38C275.27 134.092 275.882 133.948 276.56 133.948C277.241 133.948 277.846 134.092 278.372 134.38C278.899 134.668 279.312 135.056 279.611 135.545C279.91 136.034 280.06 136.577 280.06 137.176C280.06 137.604 279.982 138.022 279.827 138.431C279.675 138.837 279.41 139.289 279.031 139.789C278.656 140.286 278.135 140.892 277.469 141.608L274.855 144.403V144.494H280.264V145.744H272.923ZM285.497 139.926C285.497 141.358 285.31 142.676 284.935 143.88C284.563 145.081 284.031 146.187 283.338 147.198H282.156C282.429 146.823 282.683 146.361 282.918 145.812C283.156 145.267 283.365 144.668 283.543 144.017C283.721 143.361 283.859 142.685 283.957 141.988C284.06 141.287 284.111 140.6 284.111 139.926C284.111 139.024 284.024 138.109 283.849 137.181C283.675 136.253 283.44 135.392 283.145 134.596C282.849 133.801 282.52 133.153 282.156 132.653H283.338C284.031 133.664 284.563 134.772 284.935 135.977C285.31 137.178 285.497 138.494 285.497 139.926ZM297.93 139.301V140.551H292.839V139.301H297.93ZM305.267 139.926C305.267 138.494 305.453 137.178 305.824 135.977C306.199 134.772 306.733 133.664 307.426 132.653H308.608C308.335 133.028 308.08 133.49 307.841 134.039C307.606 134.585 307.4 135.185 307.222 135.84C307.044 136.492 306.903 137.166 306.801 137.863C306.703 138.56 306.653 139.248 306.653 139.926C306.653 140.827 306.741 141.742 306.915 142.67C307.089 143.598 307.324 144.46 307.619 145.255C307.915 146.051 308.244 146.698 308.608 147.198H307.426C306.733 146.187 306.199 145.081 305.824 143.88C305.453 142.676 305.267 141.358 305.267 139.926ZM315.587 139.301V140.551H310.496V139.301H315.587ZM321.668 145.903C320.918 145.903 320.249 145.774 319.662 145.517C319.079 145.259 318.615 144.901 318.27 144.443C317.929 143.981 317.743 143.445 317.713 142.835H319.145C319.175 143.21 319.304 143.534 319.531 143.806C319.759 144.075 320.056 144.284 320.423 144.431C320.791 144.579 321.198 144.653 321.645 144.653C322.145 144.653 322.588 144.566 322.974 144.392C323.361 144.217 323.664 143.975 323.884 143.664C324.103 143.354 324.213 142.994 324.213 142.585C324.213 142.157 324.107 141.78 323.895 141.454C323.683 141.125 323.372 140.867 322.963 140.681C322.554 140.496 322.054 140.403 321.463 140.403H320.531V139.153H321.463C321.925 139.153 322.33 139.07 322.679 138.903C323.031 138.736 323.306 138.501 323.503 138.198C323.704 137.895 323.804 137.539 323.804 137.13C323.804 136.736 323.717 136.394 323.543 136.102C323.368 135.81 323.122 135.583 322.804 135.42C322.49 135.257 322.118 135.176 321.69 135.176C321.289 135.176 320.91 135.25 320.554 135.397C320.202 135.541 319.914 135.751 319.69 136.028C319.467 136.301 319.346 136.63 319.327 137.017H317.963C317.986 136.407 318.17 135.873 318.514 135.414C318.859 134.952 319.31 134.592 319.866 134.335C320.427 134.077 321.043 133.948 321.713 133.948C322.433 133.948 323.05 134.094 323.565 134.386C324.08 134.674 324.476 135.055 324.753 135.528C325.029 136.001 325.168 136.513 325.168 137.062C325.168 137.717 324.995 138.276 324.651 138.738C324.31 139.2 323.846 139.52 323.259 139.698V139.789C323.993 139.911 324.567 140.223 324.98 140.727C325.393 141.227 325.599 141.846 325.599 142.585C325.599 143.217 325.427 143.786 325.082 144.289C324.741 144.789 324.276 145.183 323.685 145.471C323.094 145.759 322.421 145.903 321.668 145.903ZM330.81 139.926C330.81 141.358 330.622 142.676 330.247 143.88C329.876 145.081 329.344 146.187 328.651 147.198H327.469C327.741 146.823 327.995 146.361 328.23 145.812C328.469 145.267 328.677 144.668 328.855 144.017C329.033 143.361 329.171 142.685 329.27 141.988C329.372 141.287 329.423 140.6 329.423 139.926C329.423 139.024 329.336 138.109 329.162 137.181C328.988 136.253 328.753 135.392 328.457 134.596C328.162 133.801 327.832 133.153 327.469 132.653H328.651C329.344 133.664 329.876 134.772 330.247 135.977C330.622 137.178 330.81 138.494 330.81 139.926ZM334.72 144.255C334.44 144.255 334.199 144.155 333.999 143.954C333.798 143.753 333.697 143.513 333.697 143.233C333.697 142.952 333.798 142.712 333.999 142.511C334.199 142.31 334.44 142.21 334.72 142.21C335 142.21 335.241 142.31 335.442 142.511C335.643 142.712 335.743 142.952 335.743 143.233C335.743 143.418 335.696 143.589 335.601 143.744C335.51 143.899 335.387 144.024 335.232 144.119C335.08 144.21 334.91 144.255 334.72 144.255ZM334.72 138.369C334.44 138.369 334.199 138.269 333.999 138.068C333.798 137.867 333.697 137.626 333.697 137.346C333.697 137.066 333.798 136.825 333.999 136.625C334.199 136.424 334.44 136.323 334.72 136.323C335 136.323 335.241 136.424 335.442 136.625C335.643 136.825 335.743 137.066 335.743 137.346C335.743 137.532 335.696 137.702 335.601 137.858C335.51 138.013 335.387 138.138 335.232 138.233C335.08 138.323 334.91 138.369 334.72 138.369Z" fill="#404040"/>
<path d="M51.8864 174.744H50.4091L54.6818 163.108H56.1364L60.4091 174.744H58.9318L55.4545 164.948H55.3636L51.8864 174.744ZM52.4318 170.198H58.3864V171.448H52.4318V170.198ZM67.0852 167.858V166.63H74.0852V167.858H67.0852ZM67.0852 171.221V169.994H74.0852V171.221H67.0852ZM82.0639 168.926C82.0639 167.494 82.2495 166.178 82.6207 164.977C82.9957 163.772 83.5298 162.664 84.223 161.653H85.4048C85.1321 162.028 84.8764 162.49 84.6378 163.039C84.4029 163.585 84.1965 164.185 84.0185 164.84C83.8404 165.492 83.7003 166.166 83.598 166.863C83.4995 167.56 83.4503 168.248 83.4503 168.926C83.4503 169.827 83.5374 170.742 83.7116 171.67C83.8859 172.598 84.1207 173.46 84.4162 174.255C84.7116 175.051 85.0412 175.698 85.4048 176.198H84.223C83.5298 175.187 82.9957 174.081 82.6207 172.88C82.2495 171.676 82.0639 170.358 82.0639 168.926ZM92.3835 168.301V169.551H87.2926V168.301H92.3835ZM94.1733 174.744V173.721L98.0142 169.517C98.465 169.024 98.8362 168.596 99.1278 168.233C99.4195 167.865 99.6354 167.52 99.7756 167.198C99.9195 166.873 99.9915 166.532 99.9915 166.176C99.9915 165.767 99.893 165.412 99.696 165.113C99.5028 164.814 99.2377 164.583 98.9006 164.42C98.5634 164.257 98.1847 164.176 97.7642 164.176C97.3172 164.176 96.9271 164.269 96.5938 164.454C96.2642 164.636 96.0085 164.892 95.8267 165.221C95.6487 165.551 95.5597 165.937 95.5597 166.38H94.2188C94.2188 165.698 94.3759 165.1 94.6903 164.585C95.0047 164.07 95.4328 163.668 95.9744 163.38C96.5199 163.092 97.1316 162.948 97.8097 162.948C98.4915 162.948 99.0956 163.092 99.6222 163.38C100.149 163.668 100.562 164.056 100.861 164.545C101.16 165.034 101.31 165.577 101.31 166.176C101.31 166.604 101.232 167.022 101.077 167.431C100.925 167.837 100.66 168.289 100.281 168.789C99.9062 169.286 99.3854 169.892 98.7188 170.608L96.1051 173.403V173.494H101.514V174.744H94.1733ZM106.747 168.926C106.747 170.358 106.56 171.676 106.185 172.88C105.813 174.081 105.281 175.187 104.588 176.198H103.406C103.679 175.823 103.933 175.361 104.168 174.812C104.406 174.267 104.615 173.668 104.793 173.017C104.971 172.361 105.109 171.685 105.207 170.988C105.31 170.287 105.361 169.6 105.361 168.926C105.361 168.024 105.274 167.109 105.099 166.181C104.925 165.253 104.69 164.392 104.395 163.596C104.099 162.801 103.77 162.153 103.406 161.653H104.588C105.281 162.664 105.813 163.772 106.185 164.977C106.56 166.178 106.747 167.494 106.747 168.926ZM119.18 168.301V169.551H114.089V168.301H119.18ZM126.517 168.926C126.517 167.494 126.703 166.178 127.074 164.977C127.449 163.772 127.983 162.664 128.676 161.653H129.858C129.585 162.028 129.33 162.49 129.091 163.039C128.856 163.585 128.65 164.185 128.472 164.84C128.294 165.492 128.153 166.166 128.051 166.863C127.953 167.56 127.903 168.248 127.903 168.926C127.903 169.827 127.991 170.742 128.165 171.67C128.339 172.598 128.574 173.46 128.869 174.255C129.165 175.051 129.494 175.698 129.858 176.198H128.676C127.983 175.187 127.449 174.081 127.074 172.88C126.703 171.676 126.517 170.358 126.517 168.926ZM136.837 168.301V169.551H131.746V168.301H136.837ZM142.918 174.903C142.168 174.903 141.499 174.774 140.912 174.517C140.329 174.259 139.865 173.901 139.52 173.443C139.179 172.981 138.993 172.445 138.963 171.835H140.395C140.425 172.21 140.554 172.534 140.781 172.806C141.009 173.075 141.306 173.284 141.673 173.431C142.041 173.579 142.448 173.653 142.895 173.653C143.395 173.653 143.838 173.566 144.224 173.392C144.611 173.217 144.914 172.975 145.134 172.664C145.353 172.354 145.463 171.994 145.463 171.585C145.463 171.157 145.357 170.78 145.145 170.454C144.933 170.125 144.622 169.867 144.213 169.681C143.804 169.496 143.304 169.403 142.713 169.403H141.781V168.153H142.713C143.175 168.153 143.58 168.07 143.929 167.903C144.281 167.736 144.556 167.501 144.753 167.198C144.954 166.895 145.054 166.539 145.054 166.13C145.054 165.736 144.967 165.394 144.793 165.102C144.618 164.81 144.372 164.583 144.054 164.42C143.74 164.257 143.368 164.176 142.94 164.176C142.539 164.176 142.16 164.25 141.804 164.397C141.452 164.541 141.164 164.751 140.94 165.028C140.717 165.301 140.596 165.63 140.577 166.017H139.213C139.236 165.407 139.42 164.873 139.764 164.414C140.109 163.952 140.56 163.592 141.116 163.335C141.677 163.077 142.293 162.948 142.963 162.948C143.683 162.948 144.3 163.094 144.815 163.386C145.33 163.674 145.726 164.055 146.003 164.528C146.279 165.001 146.418 165.513 146.418 166.062C146.418 166.717 146.245 167.276 145.901 167.738C145.56 168.2 145.096 168.52 144.509 168.698V168.789C145.243 168.911 145.817 169.223 146.23 169.727C146.643 170.227 146.849 170.846 146.849 171.585C146.849 172.217 146.677 172.786 146.332 173.289C145.991 173.789 145.526 174.183 144.935 174.471C144.344 174.759 143.671 174.903 142.918 174.903ZM152.06 168.926C152.06 170.358 151.872 171.676 151.497 172.88C151.126 174.081 150.594 175.187 149.901 176.198H148.719C148.991 175.823 149.245 175.361 149.48 174.812C149.719 174.267 149.927 173.668 150.105 173.017C150.283 172.361 150.421 171.685 150.52 170.988C150.622 170.287 150.673 169.6 150.673 168.926C150.673 168.024 150.586 167.109 150.412 166.181C150.238 165.253 150.003 164.392 149.707 163.596C149.412 162.801 149.082 162.153 148.719 161.653H149.901C150.594 162.664 151.126 163.772 151.497 164.977C151.872 166.178 152.06 167.494 152.06 168.926ZM51.8864 198.744H50.4091L54.6818 187.108H56.1364L60.4091 198.744H58.9318L55.4545 188.948H55.3636L51.8864 198.744ZM52.4318 194.198H58.3864V195.448H52.4318V194.198ZM67.0852 191.858V190.63H74.0852V191.858H67.0852ZM67.0852 195.221V193.994H74.0852V195.221H67.0852ZM86.5866 192.301V193.551H81.4957V192.301H86.5866ZM88.3764 198.744V197.721L92.2173 193.517C92.6681 193.024 93.0393 192.596 93.331 192.233C93.6226 191.865 93.8385 191.52 93.9787 191.198C94.1226 190.873 94.1946 190.532 94.1946 190.176C94.1946 189.767 94.0961 189.412 93.8991 189.113C93.706 188.814 93.4408 188.583 93.1037 188.42C92.7666 188.257 92.3878 188.176 91.9673 188.176C91.5204 188.176 91.1302 188.269 90.7969 188.454C90.4673 188.636 90.2116 188.892 90.0298 189.221C89.8518 189.551 89.7628 189.937 89.7628 190.38H88.4219C88.4219 189.698 88.5791 189.1 88.8935 188.585C89.2079 188.07 89.6359 187.668 90.1776 187.38C90.723 187.092 91.3348 186.948 92.0128 186.948C92.6946 186.948 93.2988 187.092 93.8253 187.38C94.3518 187.668 94.7647 188.056 95.0639 188.545C95.3632 189.034 95.5128 189.577 95.5128 190.176C95.5128 190.604 95.4351 191.022 95.2798 191.431C95.1283 191.837 94.8632 192.289 94.4844 192.789C94.1094 193.286 93.5885 193.892 92.9219 194.608L90.3082 197.403V197.494H95.7173V198.744H88.3764ZM105.996 196.698V189.198H107.268V196.698H105.996ZM102.882 193.585V192.312H110.382V193.585H102.882ZM121.543 198.903C120.793 198.903 120.124 198.774 119.537 198.517C118.954 198.259 118.49 197.901 118.145 197.443C117.804 196.981 117.618 196.445 117.588 195.835H119.02C119.05 196.21 119.179 196.534 119.406 196.806C119.634 197.075 119.931 197.284 120.298 197.431C120.666 197.579 121.073 197.653 121.52 197.653C122.02 197.653 122.463 197.566 122.849 197.392C123.236 197.217 123.539 196.975 123.759 196.664C123.978 196.354 124.088 195.994 124.088 195.585C124.088 195.157 123.982 194.78 123.77 194.454C123.558 194.125 123.247 193.867 122.838 193.681C122.429 193.496 121.929 193.403 121.338 193.403H120.406V192.153H121.338C121.8 192.153 122.205 192.07 122.554 191.903C122.906 191.736 123.181 191.501 123.378 191.198C123.579 190.895 123.679 190.539 123.679 190.13C123.679 189.736 123.592 189.394 123.418 189.102C123.243 188.81 122.997 188.583 122.679 188.42C122.365 188.257 121.993 188.176 121.565 188.176C121.164 188.176 120.785 188.25 120.429 188.397C120.077 188.541 119.789 188.751 119.565 189.028C119.342 189.301 119.221 189.63 119.202 190.017H117.838C117.861 189.407 118.045 188.873 118.389 188.414C118.734 187.952 119.185 187.592 119.741 187.335C120.302 187.077 120.918 186.948 121.588 186.948C122.308 186.948 122.925 187.094 123.44 187.386C123.955 187.674 124.351 188.055 124.628 188.528C124.904 189.001 125.043 189.513 125.043 190.062C125.043 190.717 124.87 191.276 124.526 191.738C124.185 192.2 123.721 192.52 123.134 192.698V192.789C123.868 192.911 124.442 193.223 124.855 193.727C125.268 194.227 125.474 194.846 125.474 195.585C125.474 196.217 125.302 196.786 124.957 197.289C124.616 197.789 124.151 198.183 123.56 198.471C122.969 198.759 122.296 198.903 121.543 198.903ZM51.8864 222.744H50.4091L54.6818 211.108H56.1364L60.4091 222.744H58.9318L55.4545 212.948H55.3636L51.8864 222.744ZM52.4318 218.198H58.3864V219.448H52.4318V218.198ZM67.0852 215.858V214.63H74.0852V215.858H67.0852ZM67.0852 219.221V217.994H74.0852V219.221H67.0852ZM85.4957 222.903C84.7457 222.903 84.0772 222.774 83.4901 222.517C82.9067 222.259 82.4427 221.901 82.098 221.443C81.7571 220.981 81.5715 220.445 81.5412 219.835H82.973C83.0033 220.21 83.1321 220.534 83.3594 220.806C83.5866 221.075 83.884 221.284 84.2514 221.431C84.6188 221.579 85.026 221.653 85.473 221.653C85.973 221.653 86.4162 221.566 86.8026 221.392C87.1889 221.217 87.492 220.975 87.7116 220.664C87.9313 220.354 88.0412 219.994 88.0412 219.585C88.0412 219.157 87.9351 218.78 87.723 218.454C87.5109 218.125 87.2003 217.867 86.7912 217.681C86.3821 217.496 85.8821 217.403 85.2912 217.403H84.3594V216.153H85.2912C85.7533 216.153 86.1586 216.07 86.5071 215.903C86.8594 215.736 87.134 215.501 87.331 215.198C87.5317 214.895 87.6321 214.539 87.6321 214.13C87.6321 213.736 87.545 213.394 87.3707 213.102C87.1965 212.81 86.9503 212.583 86.6321 212.42C86.3177 212.257 85.9465 212.176 85.5185 212.176C85.117 212.176 84.7382 212.25 84.3821 212.397C84.0298 212.541 83.742 212.751 83.5185 213.028C83.295 213.301 83.1738 213.63 83.1548 214.017H81.7912C81.8139 213.407 81.9976 212.873 82.3423 212.414C82.687 211.952 83.1378 211.592 83.6946 211.335C84.2552 211.077 84.8707 210.948 85.5412 210.948C86.2609 210.948 86.8783 211.094 87.3935 211.386C87.9086 211.674 88.3045 212.055 88.581 212.528C88.8575 213.001 88.9957 213.513 88.9957 214.062C88.9957 214.717 88.8234 215.276 88.4787 215.738C88.1378 216.2 87.6738 216.52 87.0866 216.698V216.789C87.8215 216.911 88.3954 217.223 88.8082 217.727C89.2211 218.227 89.4276 218.846 89.4276 219.585C89.4276 220.217 89.2552 220.786 88.9105 221.289C88.5696 221.789 88.1037 222.183 87.5128 222.471C86.9219 222.759 86.2495 222.903 85.4957 222.903ZM101.274 216.301V217.551H96.1832V216.301H101.274ZM108.111 222.744V221.721L111.952 217.517C112.402 217.024 112.774 216.596 113.065 216.233C113.357 215.865 113.573 215.52 113.713 215.198C113.857 214.873 113.929 214.532 113.929 214.176C113.929 213.767 113.83 213.412 113.634 213.113C113.44 212.814 113.175 212.583 112.838 212.42C112.501 212.257 112.122 212.176 111.702 212.176C111.255 212.176 110.865 212.269 110.531 212.454C110.202 212.636 109.946 212.892 109.764 213.221C109.586 213.551 109.497 213.937 109.497 214.38H108.156C108.156 213.698 108.313 213.1 108.628 212.585C108.942 212.07 109.37 211.668 109.912 211.38C110.457 211.092 111.069 210.948 111.747 210.948C112.429 210.948 113.033 211.092 113.56 211.38C114.086 211.668 114.499 212.056 114.798 212.545C115.098 213.034 115.247 213.577 115.247 214.176C115.247 214.604 115.17 215.022 115.014 215.431C114.863 215.837 114.598 216.289 114.219 216.789C113.844 217.286 113.323 217.892 112.656 218.608L110.043 221.403V221.494H115.452V222.744H108.111ZM51.8864 246.744H50.4091L54.6818 235.108H56.1364L60.4091 246.744H58.9318L55.4545 236.948H55.3636L51.8864 246.744ZM52.4318 242.198H58.3864V243.448H52.4318V242.198ZM67.0852 239.858V238.63H74.0852V239.858H67.0852ZM67.0852 243.221V241.994H74.0852V243.221H67.0852ZM85.6548 235.108V246.744H84.2457V236.585H84.1776L81.3366 238.471V237.039L84.2457 235.108H85.6548Z" fill="#404040"/>
<rect x="1.5" y="90.5" width="37" height="37" rx="18.5" fill="white"/>
<path d="M14.5 117H17.5V101H14.5V117ZM22.5 117H25.5V101H22.5V117ZM20 129C17.2667 129 14.6833 128.475 12.25 127.425C9.81667 126.375 7.69167 124.942 5.875 123.125C4.05833 121.308 2.625 119.183 1.575 116.75C0.525 114.317 0 111.733 0 109C0 106.233 0.525 103.633 1.575 101.2C2.625 98.7667 4.05833 96.65 5.875 94.85C7.69167 93.05 9.81667 91.625 12.25 90.575C14.6833 89.525 17.2667 89 20 89C22.7667 89 25.3667 89.525 27.8 90.575C30.2333 91.625 32.35 93.05 34.15 94.85C35.95 96.65 37.375 98.7667 38.425 101.2C39.475 103.633 40 106.233 40 109C40 111.733 39.475 114.317 38.425 116.75C37.375 119.183 35.95 121.308 34.15 123.125C32.35 124.942 30.2333 126.375 27.8 127.425C25.3667 128.475 22.7667 129 20 129ZM20 126C24.7333 126 28.75 124.342 32.05 121.025C35.35 117.708 37 113.7 37 109C37 104.267 35.35 100.25 32.05 96.95C28.75 93.65 24.7333 92 20 92C15.3 92 11.2917 93.65 7.975 96.95C4.65833 100.25 3 104.267 3 109C3 113.7 4.65833 117.708 7.975 121.025C11.2917 124.342 15.3 126 20 126Z" fill="#EEF0F1"/>
<rect x="1.5" y="90.5" width="37" height="37" rx="18.5" stroke="#EDEEF0" stroke-width="3"/>
</svg>
