<svg width="38" height="38" viewBox="0 0 38 38" fill="none" xmlns="http://www.w3.org/2000/svg">
<circle cx="19" cy="19" r="19" fill="#5BC1FC"/>
<g filter="url(#filter0_d_1209_198)">
<path d="M21.6667 14C21.8877 14 22.0996 14.0878 22.2559 14.2441C22.4122 14.4004 22.5 14.6123 22.5 14.8333C22.5 15.0543 22.4122 15.2663 22.2559 15.4226C22.0996 15.5789 21.8877 15.6667 21.6667 15.6667H15C14.779 15.6667 14.567 15.5789 14.4107 15.4226C14.2545 15.2663 14.1667 15.0543 14.1667 14.8333C14.1667 14.6123 14.2545 14.4004 14.4107 14.2441C14.567 14.0878 14.779 14 15 14H21.6667ZM28.0892 28.7558C27.9329 28.9121 27.721 28.9998 27.5 28.9998C27.279 28.9998 27.0671 28.9121 26.9108 28.7558L24.905 26.75C24.311 27.1291 23.6214 27.3315 22.9167 27.3333C22.175 27.3333 21.45 27.1134 20.8333 26.7013C20.2166 26.2893 19.7359 25.7036 19.4521 25.0184C19.1683 24.3332 19.094 23.5792 19.2387 22.8517C19.3834 22.1243 19.7406 21.4561 20.265 20.9317C20.7895 20.4072 21.4577 20.0501 22.1851 19.9054C22.9125 19.7607 23.6665 19.835 24.3517 20.1188C25.037 20.4026 25.6226 20.8833 26.0347 21.4999C26.4467 22.1166 26.6667 22.8417 26.6667 23.5833C26.6648 24.288 26.4625 24.9776 26.0833 25.5717L28.0892 27.5775C28.2454 27.7338 28.3332 27.9457 28.3332 28.1667C28.3332 28.3876 28.2454 28.5996 28.0892 28.7558ZM22.9167 25.6667C23.3287 25.6667 23.7315 25.5445 24.0741 25.3156C24.4167 25.0866 24.6837 24.7613 24.8414 24.3806C24.9991 23.9999 25.0404 23.581 24.96 23.1769C24.8796 22.7728 24.6812 22.4016 24.3898 22.1102C24.0984 21.8188 23.7272 21.6204 23.3231 21.54C22.919 21.4596 22.5001 21.5009 22.1194 21.6586C21.7387 21.8163 21.4134 22.0833 21.1844 22.4259C20.9555 22.7685 20.8333 23.1713 20.8333 23.5833C20.8333 24.1359 21.0528 24.6658 21.4435 25.0565C21.8342 25.4472 22.3641 25.6667 22.9167 25.6667ZM19.1667 27.3333H14.1667C13.5036 27.3333 12.8677 27.0699 12.3989 26.6011C11.9301 26.1323 11.6667 25.4964 11.6667 24.8333V13.1667C11.6667 12.5036 11.9301 11.8677 12.3989 11.3989C12.8677 10.9301 13.5036 10.6667 14.1667 10.6667H24.1667C24.3877 10.6667 24.5996 10.7545 24.7559 10.9107C24.9122 11.067 25 11.279 25 11.5V18.1667C25 18.3877 25.0878 18.5996 25.2441 18.7559C25.4004 18.9122 25.6123 19 25.8333 19C26.0543 19 26.2663 18.9122 26.4226 18.7559C26.5789 18.5996 26.6667 18.3877 26.6667 18.1667V11.5C26.6667 10.837 26.4033 10.2011 25.9344 9.73223C25.4656 9.26339 24.8297 9 24.1667 9H14.1667C13.062 9.00132 12.003 9.44073 11.2219 10.2218C10.4407 11.003 10.0013 12.062 10 13.1667V24.8333C10.0013 25.938 10.4407 26.997 11.2219 27.7782C12.003 28.5593 13.062 28.9987 14.1667 29H19.1667C19.3877 29 19.5996 28.9122 19.7559 28.7559C19.9122 28.5996 20 28.3877 20 28.1667C20 27.9457 19.9122 27.7337 19.7559 27.5774C19.5996 27.4211 19.3877 27.3333 19.1667 27.3333Z" fill="white"/>
</g>
<defs>
<filter id="filter0_d_1209_198" x="3" y="2" width="32.3332" height="34" filterUnits="userSpaceOnUse" color-interpolation-filters="sRGB">
<feFlood flood-opacity="0" result="BackgroundImageFix"/>
<feColorMatrix in="SourceAlpha" type="matrix" values="0 0 0 0 0 0 0 0 0 0 0 0 0 0 0 0 0 0 127 0" result="hardAlpha"/>
<feOffset/>
<feGaussianBlur stdDeviation="3.5"/>
<feComposite in2="hardAlpha" operator="out"/>
<feColorMatrix type="matrix" values="0 0 0 0 1 0 0 0 0 1 0 0 0 0 1 0 0 0 1 0"/>
<feBlend mode="normal" in2="BackgroundImageFix" result="effect1_dropShadow_1209_198"/>
<feBlend mode="normal" in="SourceGraphic" in2="effect1_dropShadow_1209_198" result="shape"/>
</filter>
</defs>
</svg>
