<svg width="38" height="38" viewBox="0 0 38 38" fill="none" xmlns="http://www.w3.org/2000/svg">
<circle cx="19" cy="19" r="19" fill="#5BC1FC"/>
<g filter="url(#filter0_d_1209_203)">
<path d="M18.968 9C16.9902 9 15.0568 9.58649 13.4123 10.6853C11.7678 11.7841 10.4861 13.3459 9.72923 15.1732C8.97235 17.0004 8.77432 19.0111 9.16017 20.9509C9.54602 22.8907 10.4984 24.6725 11.897 26.0711C13.2955 27.4696 15.0773 28.422 17.0171 28.8078C18.9569 29.1937 20.9676 28.9957 22.7949 28.2388C24.6221 27.4819 26.1839 26.2002 27.2827 24.5557C28.3815 22.9112 28.968 20.9778 28.968 19C28.9652 16.3487 27.9107 13.8068 26.0359 11.9321C24.1612 10.0574 21.6193 9.00287 18.968 9V9ZM27.3014 19C27.3023 20.6331 26.8205 22.23 25.9164 23.59L24.923 22.5958C24.8451 22.5177 24.8014 22.412 24.8014 22.3017V21.5C24.8014 20.837 24.538 20.2011 24.0691 19.7322C23.6003 19.2634 22.9644 19 22.3014 19H19.8014C19.5803 19 19.3684 18.9122 19.2121 18.7559C19.0558 18.5996 18.968 18.3877 18.968 18.1667V17.75C18.968 17.6395 19.0119 17.5335 19.0901 17.4554C19.1682 17.3772 19.2742 17.3333 19.3847 17.3333C19.9372 17.3333 20.4671 17.1138 20.8578 16.7231C21.2485 16.3324 21.468 15.8025 21.468 15.25V14.4167C21.468 14.3062 21.5119 14.2002 21.5901 14.122C21.6682 14.0439 21.7742 14 21.8847 14H23.0339C23.5858 13.9984 24.115 13.7792 24.5064 13.39L24.8205 13.0758C25.6065 13.8492 26.2307 14.7714 26.6566 15.7885C27.0825 16.8056 27.3017 17.8973 27.3014 19ZM10.6755 19.8025L13.3072 22.4342C13.5388 22.6672 13.8143 22.852 14.1179 22.9778C14.4214 23.1035 14.747 23.1677 15.0755 23.1667H17.3014C17.5224 23.1667 17.7343 23.2545 17.8906 23.4107C18.0469 23.567 18.1347 23.779 18.1347 24V27.2908C16.2182 27.0952 14.4283 26.2426 13.0688 24.8778C11.7092 23.5129 10.8637 21.7198 10.6755 19.8025V19.8025ZM19.8014 27.2908V24C19.8014 23.337 19.538 22.7011 19.0691 22.2322C18.6003 21.7634 17.9644 21.5 17.3014 21.5H15.0755C14.966 21.5001 14.8574 21.4786 14.7562 21.4367C14.655 21.3948 14.563 21.3333 14.4855 21.2558L10.7705 17.5408C11.009 16.1852 11.5803 14.9099 12.4332 13.8295C13.286 12.7491 14.3938 11.8973 15.657 11.3505C16.9203 10.8038 18.2995 10.5792 19.6709 10.6969C21.0423 10.8146 22.3631 11.271 23.5147 12.025L23.328 12.2117C23.2496 12.289 23.144 12.3327 23.0339 12.3333H21.8847C21.3322 12.3333 20.8022 12.5528 20.4115 12.9435C20.0208 13.3342 19.8014 13.8641 19.8014 14.4167V15.25C19.8014 15.3605 19.7575 15.4665 19.6793 15.5446C19.6012 15.6228 19.4952 15.6667 19.3847 15.6667C18.8322 15.6667 18.3022 15.8862 17.9115 16.2769C17.5208 16.6676 17.3014 17.1975 17.3014 17.75V18.1667C17.3014 18.8297 17.5647 19.4656 18.0336 19.9344C18.5024 20.4033 19.1383 20.6667 19.8014 20.6667H22.3014C22.5224 20.6667 22.7343 20.7545 22.8906 20.9107C23.0469 21.067 23.1347 21.279 23.1347 21.5V22.3017C23.1363 22.8537 23.3554 23.3828 23.7447 23.7742L24.8589 24.8883C23.5017 26.2502 21.7144 27.0992 19.8014 27.2908V27.2908Z" fill="white"/>
</g>
<defs>
<filter id="filter0_d_1209_203" x="1.96802" y="2" width="34" height="34" filterUnits="userSpaceOnUse" color-interpolation-filters="sRGB">
<feFlood flood-opacity="0" result="BackgroundImageFix"/>
<feColorMatrix in="SourceAlpha" type="matrix" values="0 0 0 0 0 0 0 0 0 0 0 0 0 0 0 0 0 0 127 0" result="hardAlpha"/>
<feOffset/>
<feGaussianBlur stdDeviation="3.5"/>
<feComposite in2="hardAlpha" operator="out"/>
<feColorMatrix type="matrix" values="0 0 0 0 1 0 0 0 0 1 0 0 0 0 1 0 0 0 1 0"/>
<feBlend mode="normal" in2="BackgroundImageFix" result="effect1_dropShadow_1209_203"/>
<feBlend mode="normal" in="SourceGraphic" in2="effect1_dropShadow_1209_203" result="shape"/>
</filter>
</defs>
</svg>
