<svg width="24" height="24" viewBox="0 0 24 24" fill="none" xmlns="http://www.w3.org/2000/svg">
<path d="M2.83636 23.4545L1.52727 22.4727L4.5 18.4909L5.75455 13.1727C5.84545 12.7909 6.00909 12.4636 6.24545 12.1909C6.48182 11.9181 6.8 11.7181 7.2 11.5909L17.6455 8.39995L19.9364 3.59996L22.9909 0.54541L24 1.5545L21.2455 4.5545L19.4182 9.6545L14.0727 13.3909L7.58182 15.4363L5.91818 19.3363L2.83636 23.4545ZM1.99091 14.5363C1.44545 14.5363 0.977273 14.3409 0.586364 13.95C0.195455 13.559 0 13.0909 0 12.5454C0 12 0.195455 11.5318 0.586364 11.1409C0.977273 10.75 1.44545 10.5545 1.99091 10.5545C2.53636 10.5545 3.00455 10.75 3.39545 11.1409C3.78636 11.5318 3.98182 12 3.98182 12.5454C3.98182 13.0909 3.78636 13.559 3.39545 13.95C3.00455 14.3409 2.53636 14.5363 1.99091 14.5363ZM7.99091 10.009C7.62727 10.1181 7.28636 10.0772 6.96818 9.88632C6.65 9.69541 6.43636 9.41814 6.32727 9.0545C6.23636 8.69086 6.27727 8.34996 6.45 8.03177C6.62273 7.71359 6.89091 7.49995 7.25455 7.39086L12.2455 5.89086L12.9545 8.53632L7.99091 10.009Z" fill="black"/>
</svg>
