<svg width="38" height="38" viewBox="0 0 38 38" fill="none" xmlns="http://www.w3.org/2000/svg">
<circle cx="19" cy="19" r="19" fill="#5BC1FC"/>
<g filter="url(#filter0_d_1209_201)">
<path d="M23.5 20.6667C23.5 20.8877 23.4122 21.0997 23.2559 21.2559C23.0996 21.4122 22.8877 21.5 22.6667 21.5H16C15.779 21.5 15.567 21.4122 15.4107 21.2559C15.2545 21.0997 15.1667 20.8877 15.1667 20.6667C15.1667 20.4457 15.2545 20.2337 15.4107 20.0774C15.567 19.9211 15.779 19.8334 16 19.8334H22.6667C22.8877 19.8334 23.0996 19.9211 23.2559 20.0774C23.4122 20.2337 23.5 20.4457 23.5 20.6667ZM20.1667 23.1667H16C15.779 23.1667 15.567 23.2545 15.4107 23.4108C15.2545 23.567 15.1667 23.779 15.1667 24C15.1667 24.221 15.2545 24.433 15.4107 24.5893C15.567 24.7456 15.779 24.8334 16 24.8334H20.1667C20.3877 24.8334 20.5996 24.7456 20.7559 24.5893C20.9122 24.433 21 24.221 21 24C21 23.779 20.9122 23.567 20.7559 23.4108C20.5996 23.2545 20.3877 23.1667 20.1667 23.1667ZM27.6667 17.7375V24.8334C27.6653 25.938 27.2259 26.9971 26.4448 27.7782C25.6637 28.5593 24.6047 28.9987 23.5 29H15.1667C14.062 28.9987 13.003 28.5593 12.2219 27.7782C11.4407 26.9971 11.0013 25.938 11 24.8334V13.1667C11.0013 12.062 11.4407 11.003 12.2219 10.2219C13.003 9.44075 14.062 9.00134 15.1667 9.00002H18.9292C19.6955 8.99805 20.4547 9.14801 21.1627 9.44124C21.8707 9.73446 22.5136 10.1651 23.0542 10.7084L25.9575 13.6134C26.501 14.1536 26.932 14.7962 27.2254 15.5042C27.5187 16.2121 27.6687 16.9712 27.6667 17.7375V17.7375ZM21.8758 11.8867C21.6136 11.6327 21.3191 11.4141 21 11.2367V14.8334C21 15.0544 21.0878 15.2663 21.2441 15.4226C21.4004 15.5789 21.6123 15.6667 21.8333 15.6667H25.43C25.2525 15.3477 25.0336 15.0535 24.7792 14.7917L21.8758 11.8867ZM26 17.7375C26 17.6 25.9733 17.4684 25.9608 17.3334H21.8333C21.1703 17.3334 20.5344 17.07 20.0656 16.6011C19.5967 16.1323 19.3333 15.4964 19.3333 14.8334V10.7059C19.1983 10.6934 19.0658 10.6667 18.9292 10.6667H15.1667C14.5036 10.6667 13.8677 10.9301 13.3989 11.3989C12.9301 11.8678 12.6667 12.5036 12.6667 13.1667V24.8334C12.6667 25.4964 12.9301 26.1323 13.3989 26.6011C13.8677 27.07 14.5036 27.3334 15.1667 27.3334H23.5C24.163 27.3334 24.7989 27.07 25.2678 26.6011C25.7366 26.1323 26 25.4964 26 24.8334V17.7375Z" fill="white"/>
</g>
<defs>
<filter id="filter0_d_1209_201" x="4" y="2" width="30.6667" height="34" filterUnits="userSpaceOnUse" color-interpolation-filters="sRGB">
<feFlood flood-opacity="0" result="BackgroundImageFix"/>
<feColorMatrix in="SourceAlpha" type="matrix" values="0 0 0 0 0 0 0 0 0 0 0 0 0 0 0 0 0 0 127 0" result="hardAlpha"/>
<feOffset/>
<feGaussianBlur stdDeviation="3.5"/>
<feComposite in2="hardAlpha" operator="out"/>
<feColorMatrix type="matrix" values="0 0 0 0 1 0 0 0 0 1 0 0 0 0 1 0 0 0 1 0"/>
<feBlend mode="normal" in2="BackgroundImageFix" result="effect1_dropShadow_1209_201"/>
<feBlend mode="normal" in="SourceGraphic" in2="effect1_dropShadow_1209_201" result="shape"/>
</filter>
</defs>
</svg>
