<svg width="38" height="38" viewBox="0 0 38 38" fill="none" xmlns="http://www.w3.org/2000/svg">
<circle cx="19" cy="19" r="19" fill="#5BC1FC"/>
<g filter="url(#filter0_d_1209_202)">
<path d="M16.4674 18.9992C17.4562 18.9992 18.4228 18.7059 19.245 18.1566C20.0672 17.6072 20.708 16.8264 21.0864 15.9128C21.4648 14.9993 21.5638 13.994 21.3709 13.0242C21.178 12.0544 20.7018 11.1636 20.0026 10.4643C19.3034 9.76514 18.4126 9.28898 17.4428 9.09607C16.4729 8.90316 15.4677 9.00217 14.5541 9.38057C13.6406 9.75898 12.8597 10.3998 12.3104 11.222C11.761 12.0441 11.4678 13.0108 11.4678 13.9996C11.4691 15.3252 11.9963 16.596 12.9336 17.5334C13.8709 18.4707 15.1418 18.9978 16.4674 18.9992ZM16.4674 10.6665C17.1266 10.6665 17.771 10.862 18.3191 11.2283C18.8673 11.5945 19.2945 12.115 19.5467 12.7241C19.799 13.3331 19.865 14.0033 19.7364 14.6498C19.6078 15.2964 19.2903 15.8903 18.8242 16.3564C18.3581 16.8225 17.7642 17.14 17.1176 17.2686C16.4711 17.3972 15.8009 17.3312 15.1919 17.0789C14.5828 16.8267 14.0623 16.3994 13.6961 15.8513C13.3298 15.3032 13.1343 14.6588 13.1343 13.9996C13.1343 13.1156 13.4855 12.2678 14.1106 11.6428C14.7356 11.0177 15.5834 10.6665 16.4674 10.6665V10.6665Z" fill="white"/>
<path d="M16.4674 20.666C14.4792 20.6684 12.5731 21.4593 11.1672 22.8652C9.76133 24.2711 8.97044 26.1772 8.96802 28.1654C8.96802 28.3864 9.05581 28.5983 9.21207 28.7546C9.36834 28.9109 9.58029 28.9987 9.80128 28.9987C10.0223 28.9987 10.2342 28.9109 10.3905 28.7546C10.5468 28.5983 10.6345 28.3864 10.6345 28.1654C10.6345 26.6184 11.2491 25.1348 12.3429 24.0409C13.4368 22.9471 14.9204 22.3325 16.4674 22.3325C18.0144 22.3325 19.498 22.9471 20.5918 24.0409C21.6857 25.1348 22.3002 26.6184 22.3002 28.1654C22.3002 28.3864 22.388 28.5983 22.5443 28.7546C22.7006 28.9109 22.9125 28.9987 23.1335 28.9987C23.3545 28.9987 23.5664 28.9109 23.7227 28.7546C23.879 28.5983 23.9668 28.3864 23.9668 28.1654C23.9643 26.1772 23.1735 24.2711 21.7676 22.8652C20.3617 21.4593 18.4556 20.6684 16.4674 20.666V20.666Z" fill="white"/>
<path d="M27.2997 15.5615C26.8359 15.5846 26.4002 15.7905 26.0879 16.134C25.7756 16.4776 25.6121 16.9309 25.6331 17.3947C25.6542 16.9309 25.4907 16.4776 25.1784 16.134C24.866 15.7905 24.4303 15.5846 23.9666 15.5615C23.5029 15.5846 23.0672 15.7905 22.7549 16.134C22.4425 16.4776 22.279 16.9309 22.3001 17.3947C22.3001 18.8363 24.1799 20.5253 25.1165 21.2769C25.2631 21.3943 25.4453 21.4582 25.6331 21.4582C25.821 21.4582 26.0032 21.3943 26.1498 21.2769C27.0864 20.5269 28.9662 18.8363 28.9662 17.3947C28.9873 16.9309 28.8237 16.4776 28.5114 16.134C28.1991 15.7905 27.7634 15.5846 27.2997 15.5615V15.5615Z" fill="white"/>
</g>
<defs>
<filter id="filter0_d_1209_202" x="1.96802" y="2" width="34" height="33.999" filterUnits="userSpaceOnUse" color-interpolation-filters="sRGB">
<feFlood flood-opacity="0" result="BackgroundImageFix"/>
<feColorMatrix in="SourceAlpha" type="matrix" values="0 0 0 0 0 0 0 0 0 0 0 0 0 0 0 0 0 0 127 0" result="hardAlpha"/>
<feOffset/>
<feGaussianBlur stdDeviation="3.5"/>
<feComposite in2="hardAlpha" operator="out"/>
<feColorMatrix type="matrix" values="0 0 0 0 1 0 0 0 0 1 0 0 0 0 1 0 0 0 1 0"/>
<feBlend mode="normal" in2="BackgroundImageFix" result="effect1_dropShadow_1209_202"/>
<feBlend mode="normal" in="SourceGraphic" in2="effect1_dropShadow_1209_202" result="shape"/>
</filter>
</defs>
</svg>
