<svg width="113" height="37" viewBox="0 0 113 37" fill="none" xmlns="http://www.w3.org/2000/svg">
<path d="M12.7283 35C14.6064 34.4944 15.8552 34.3113 17.5376 33.3353C19.4835 32.2063 21.422 29.0809 21.422 29.0809C21.422 29.0809 23.3132 25.0221 23.2717 21.8671C23.232 18.8507 23.0867 16.5029 21.422 13.9133C19.7572 11.3237 18.6634 9.93653 16.4277 7.43931C14.9287 5.76487 12.1734 3 12.1734 3C10.2953 6.10615 9.67723 7.45832 7.54913 10.3988C6.07414 12.4369 4.37259 13.6747 3.2948 15.948C2.37158 17.8952 2 21.3121 2 21.3121C2 21.3121 2.41296 24.895 3.84971 26.4913C5.28646 28.0877 11.3162 29.3882 13.2832 28.526M13.2832 28.526C14.7769 27.998 15.3897 27.0864 16.2428 25.7514C17.2152 24.2297 17.6624 23.1137 17.5376 21.3121C17.4364 19.853 17.0406 19.0236 16.2428 17.7977C15.2939 16.3396 14.2135 15.9939 12.9133 14.8382C11.8298 15.5605 11.0573 15.7648 10.1387 16.6879C9.06386 17.768 8.43111 18.529 8.10405 20.0173C7.79241 21.4354 7.99584 22.3458 8.47399 23.7168C8.8901 24.9099 9.28179 25.5627 10.1387 26.4913C10.1387 26.4913 12.0552 27.7314 13.2832 28.526Z" stroke="#081271" stroke-width="2.75"/>
<path d="M33.1726 23.5875V18.1192C33.1726 17.0939 33.8182 16.2775 34.9194 16.2775C36.0587 16.2775 36.5714 17.037 36.5714 18.0433V23.5875H39.0776V18.1192C39.0776 17.1129 39.7232 16.2775 40.8054 16.2775C41.9636 16.2775 42.4573 17.037 42.4573 18.0433V23.5875H44.9066V17.5306C44.9066 15.0244 43.2548 13.9801 41.5269 13.9801C40.2928 13.9801 39.3055 14.3978 38.565 15.537C38.0903 14.5307 37.065 13.9801 35.7928 13.9801C34.7675 13.9801 33.5713 14.4738 33.0587 15.3851V14.2459H30.6473V23.5875H33.1726ZM46.1358 21.0432C46.1358 22.5052 47.3509 23.8533 49.3446 23.8533C50.7306 23.8533 51.623 23.2077 52.0977 22.4673C52.0977 22.828 52.1357 23.3406 52.1926 23.5875H54.509C54.4521 23.2647 54.3951 22.6002 54.3951 22.1065V17.5117C54.3951 15.632 53.2939 13.9611 50.3319 13.9611C47.8256 13.9611 46.4776 15.575 46.3257 17.037L48.5661 17.5117C48.6421 16.6952 49.2496 15.9927 50.3509 15.9927C51.4141 15.9927 51.9268 16.5433 51.9268 17.2079C51.9268 17.5306 51.7559 17.7965 51.2243 17.8724L48.9269 18.2142C47.3699 18.442 46.1358 19.3724 46.1358 21.0432ZM49.8762 21.9736C49.0598 21.9736 48.661 21.442 48.661 20.8913C48.661 20.1698 49.1737 19.8091 49.8193 19.7141L51.9268 19.3914V19.8091C51.9268 21.4609 50.9395 21.9736 49.8762 21.9736ZM59.2393 11.4548H56.9608V12.7649C56.9608 13.6004 56.5051 14.2459 55.5178 14.2459H55.0431V16.4864H56.733V20.8344C56.733 22.6381 57.8722 23.7204 59.6949 23.7204C60.4354 23.7204 60.8911 23.5875 61.119 23.4925V21.404C60.9861 21.442 60.6443 21.4799 60.3405 21.4799C59.619 21.4799 59.2393 21.2141 59.2393 20.3977V16.4864H61.119V14.2459H59.2393V11.4548ZM64.5662 18.1003C64.6231 17.075 65.2497 16.2775 66.313 16.2775C67.5281 16.2775 68.0408 17.0939 68.0408 18.1382V23.5875H70.566V17.7015C70.566 15.6509 69.4648 13.9991 67.0914 13.9991C66.1991 13.9991 65.1738 14.3029 64.5662 15.0244V9.84094H62.0409V23.5875H64.5662V18.1003ZM71.7999 21.0432C71.7999 22.5052 73.015 23.8533 75.0087 23.8533C76.3947 23.8533 77.2871 23.2077 77.7618 22.4673C77.7618 22.828 77.7998 23.3406 77.8567 23.5875H80.1731C80.1162 23.2647 80.0592 22.6002 80.0592 22.1065V17.5117C80.0592 15.632 78.958 13.9611 75.996 13.9611C73.4897 13.9611 72.1417 15.575 71.9898 17.037L74.2302 17.5117C74.3062 16.6952 74.9137 15.9927 76.015 15.9927C77.0783 15.9927 77.5909 16.5433 77.5909 17.2079C77.5909 17.5306 77.42 17.7965 76.8884 17.8724L74.591 18.2142C73.034 18.442 71.7999 19.3724 71.7999 21.0432ZM75.5403 21.9736C74.7239 21.9736 74.3251 21.442 74.3251 20.8913C74.3251 20.1698 74.8378 19.8091 75.4833 19.7141L77.5909 19.3914V19.8091C77.5909 21.4609 76.6036 21.9736 75.5403 21.9736ZM84.3705 27.195V22.6761C84.8262 23.3027 85.7755 23.8153 87.0666 23.8153C89.7058 23.8153 91.4716 21.7268 91.4716 18.8977C91.4716 16.1256 89.8957 14.0371 87.1616 14.0371C85.7565 14.0371 84.7122 14.6636 84.2945 15.3851V14.2459H81.8452V27.195H84.3705ZM88.9843 18.9167C88.9843 20.5875 87.959 21.5559 86.6679 21.5559C85.3768 21.5559 84.3325 20.5686 84.3325 18.9167C84.3325 17.2648 85.3768 16.2965 86.6679 16.2965C87.959 16.2965 88.9843 17.2648 88.9843 18.9167ZM95.2369 27.195V22.6761C95.6926 23.3027 96.6419 23.8153 97.9331 23.8153C100.572 23.8153 102.338 21.7268 102.338 18.8977C102.338 16.1256 100.762 14.0371 98.028 14.0371C96.623 14.0371 95.5787 14.6636 95.161 15.3851V14.2459H92.7117V27.195H95.2369ZM99.8507 18.9167C99.8507 20.5875 98.8254 21.5559 97.5343 21.5559C96.2432 21.5559 95.1989 20.5686 95.1989 18.9167C95.1989 17.2648 96.2432 16.2965 97.5343 16.2965C98.8254 16.2965 99.8507 17.2648 99.8507 18.9167ZM106.361 27.2709L112.228 14.2459H109.532L107.234 19.7141L104.747 14.2459H101.918L105.886 22.4103L103.684 27.2709H106.361Z" fill="#081271"/>
</svg>
