<svg width="126" height="40" viewBox="0 0 126 40" fill="none" xmlns="http://www.w3.org/2000/svg">
<path d="M12.1121 36.4441C13.9902 35.9385 15.239 35.7554 16.9214 34.7794C18.8673 33.6504 20.8058 30.525 20.8058 30.525C20.8058 30.525 22.697 26.4662 22.6555 23.3111C22.6158 20.2947 22.4705 17.947 20.8058 15.3574C19.141 12.7678 18.0472 11.3806 15.8115 8.8834C14.3125 7.20897 11.5572 4.44409 11.5572 4.44409C9.67908 7.55024 9.06101 8.90241 6.93292 11.8429C5.45793 13.881 3.75638 15.1188 2.67859 17.3921C1.75537 19.3393 1.38379 22.7562 1.38379 22.7562C1.38379 22.7562 1.79675 26.339 3.2335 27.9354C4.67024 29.5318 10.7 30.8323 12.667 29.9701M12.667 29.9701C14.1607 29.4421 14.7735 28.5305 15.6266 27.1955C16.599 25.6738 17.0462 24.5578 16.9214 22.7562C16.8202 21.2971 16.4243 20.4677 15.6266 19.2418C14.6777 17.7837 13.5973 17.438 12.2971 16.2822C11.2136 17.0046 10.4411 17.2089 9.52252 18.132C8.44765 19.2121 7.8149 19.9731 7.48784 21.4614C7.1762 22.8795 7.37963 23.7899 7.85778 25.1609C8.27389 26.354 8.66558 27.0068 9.52252 27.9354C9.52252 27.9354 11.439 29.1755 12.667 29.9701Z" stroke="white" stroke-width="2.75"/>
<path d="M32.556 25.0314V19.5632C32.556 18.5379 33.2016 17.7215 34.3028 17.7215C35.4421 17.7215 35.9548 18.481 35.9548 19.4873V25.0314H38.4611V19.5632C38.4611 18.5569 39.1066 17.7215 40.1889 17.7215C41.3471 17.7215 41.8407 18.481 41.8407 19.4873V25.0314H44.29V18.9746C44.29 16.4683 42.6382 15.4241 40.9104 15.4241C39.6762 15.4241 38.6889 15.8418 37.9484 16.981C37.4737 15.9747 36.4484 15.4241 35.1762 15.4241C34.1509 15.4241 32.9547 15.9177 32.4421 16.8291V15.6899H30.0308V25.0314H32.556ZM45.5192 22.4872C45.5192 23.9492 46.7344 25.2973 48.728 25.2973C50.114 25.2973 51.0064 24.6517 51.4811 23.9112C51.4811 24.272 51.5191 24.7846 51.576 25.0314H53.8924C53.8355 24.7087 53.7785 24.0441 53.7785 23.5505V18.9556C53.7785 17.0759 52.6773 15.4051 49.7153 15.4051C47.209 15.4051 45.861 17.019 45.7091 18.481L47.9495 18.9556C48.0255 18.1392 48.6331 17.4367 49.7343 17.4367C50.7976 17.4367 51.3102 17.9873 51.3102 18.6518C51.3102 18.9746 51.1393 19.2404 50.6077 19.3164L48.3103 19.6581C46.7534 19.886 45.5192 20.8163 45.5192 22.4872ZM49.2596 23.4176C48.4432 23.4176 48.0445 22.8859 48.0445 22.3353C48.0445 21.6138 48.5571 21.253 49.2027 21.1581L51.3102 20.8353V21.253C51.3102 22.9049 50.3229 23.4176 49.2596 23.4176ZM58.6227 12.8988H56.3442V14.2089C56.3442 15.0443 55.8886 15.6899 54.9012 15.6899H54.4266V17.9303H56.1164V22.2783C56.1164 24.0821 57.2556 25.1644 59.0784 25.1644C59.8189 25.1644 60.2745 25.0314 60.5024 24.9365V22.848C60.3695 22.8859 60.0277 22.9239 59.7239 22.9239C59.0024 22.9239 58.6227 22.6581 58.6227 21.8416V17.9303H60.5024V15.6899H58.6227V12.8988ZM63.9496 19.5442C64.0066 18.5189 64.6331 17.7215 65.6964 17.7215C66.9116 17.7215 67.4242 18.5379 67.4242 19.5822V25.0314H69.9495V19.1455C69.9495 17.0949 68.8482 15.443 66.4749 15.443C65.5825 15.443 64.5572 15.7468 63.9496 16.4683V11.2849H61.4243V25.0314H63.9496V19.5442ZM71.1833 22.4872C71.1833 23.9492 72.3985 25.2973 74.3921 25.2973C75.7781 25.2973 76.6705 24.6517 77.1452 23.9112C77.1452 24.272 77.1832 24.7846 77.2401 25.0314H79.5565C79.4996 24.7087 79.4426 24.0441 79.4426 23.5505V18.9556C79.4426 17.0759 78.3414 15.4051 75.3794 15.4051C72.8731 15.4051 71.5251 17.019 71.3732 18.481L73.6136 18.9556C73.6896 18.1392 74.2972 17.4367 75.3984 17.4367C76.4617 17.4367 76.9743 17.9873 76.9743 18.6518C76.9743 18.9746 76.8034 19.2404 76.2718 19.3164L73.9744 19.6581C72.4175 19.886 71.1833 20.8163 71.1833 22.4872ZM74.9237 23.4176C74.1073 23.4176 73.7086 22.8859 73.7086 22.3353C73.7086 21.6138 74.2212 21.253 74.8668 21.1581L76.9743 20.8353V21.253C76.9743 22.9049 75.987 23.4176 74.9237 23.4176ZM83.7539 28.639V24.1201C84.2096 24.7466 85.1589 25.2593 86.45 25.2593C89.0892 25.2593 90.855 23.1707 90.855 20.3417C90.855 17.5696 89.2791 15.481 86.545 15.481C85.1399 15.481 84.0957 16.1076 83.678 16.8291V15.6899H81.2286V28.639H83.7539ZM88.3677 20.3607C88.3677 22.0315 87.3424 22.9998 86.0513 22.9998C84.7602 22.9998 83.7159 22.0125 83.7159 20.3607C83.7159 18.7088 84.7602 17.7405 86.0513 17.7405C87.3424 17.7405 88.3677 18.7088 88.3677 20.3607ZM94.6203 28.639V24.1201C95.076 24.7466 96.0254 25.2593 97.3165 25.2593C99.9557 25.2593 101.721 23.1707 101.721 20.3417C101.721 17.5696 100.146 15.481 97.4114 15.481C96.0064 15.481 94.9621 16.1076 94.5444 16.8291V15.6899H92.0951V28.639H94.6203ZM99.2342 20.3607C99.2342 22.0315 98.2089 22.9998 96.9178 22.9998C95.6266 22.9998 94.5824 22.0125 94.5824 20.3607C94.5824 18.7088 95.6266 17.7405 96.9178 17.7405C98.2089 17.7405 99.2342 18.7088 99.2342 20.3607ZM105.744 28.7149L111.611 15.6899H108.915L106.618 21.1581L104.13 15.6899H101.301L105.27 23.8543L103.067 28.7149H105.744Z" fill="white"/>
</svg>
