<svg width="24" height="30" viewBox="0 0 24 30" fill="none" xmlns="http://www.w3.org/2000/svg">
<path d="M2.25 30C1.625 30 1.09375 29.7812 0.65625 29.3437C0.21875 28.9062 0 28.375 0 27.75V8.625C0 7.25 0.425 6.05625 1.275 5.04375C2.125 4.03125 3.2 3.4 4.5 3.15V0H8.25V3H15.75V0H19.5V3.15C20.8 3.4 21.875 4.03125 22.725 5.04375C23.575 6.05625 24 7.25 24 8.625V27.75C24 28.375 23.7812 28.9062 23.3438 29.3437C22.9062 29.7812 22.375 30 21.75 30H2.25ZM2.25 27.75H21.75V8.625C21.75 7.675 21.425 6.875 20.775 6.225C20.125 5.575 19.325 5.25 18.375 5.25H5.625C4.7 5.25 3.90625 5.575 3.24375 6.225C2.58125 6.875 2.25 7.675 2.25 8.625V27.75ZM17.25 20.625H19.5V15.375H4.5V17.625H17.25V20.625Z" fill="black"/>
</svg>
