<svg width="12" height="12" viewBox="0 0 12 12" fill="none" xmlns="http://www.w3.org/2000/svg">
<path d="M10.8194 11.5L8.07084 8.75139C7.70972 9.06435 7.28843 9.3081 6.80695 9.48264C6.32547 9.65718 5.81389 9.74444 5.27222 9.74444C3.97222 9.74444 2.87084 9.29305 1.96806 8.39028C1.06528 7.4875 0.613892 6.39815 0.613892 5.12222C0.613892 3.8463 1.06528 2.75694 1.96806 1.85417C2.87084 0.951389 3.96621 0.5 5.25417 0.5C6.5301 0.5 7.61644 0.951389 8.5132 1.85417C9.40996 2.75694 9.85834 3.8463 9.85834 5.12222C9.85834 5.63981 9.77408 6.13935 9.60556 6.62083C9.43704 7.10231 9.18426 7.5537 8.84722 7.975L11.6139 10.7056L10.8194 11.5ZM5.25417 8.66111C6.22917 8.66111 7.05972 8.31505 7.74584 7.62292C8.43195 6.93079 8.775 6.09722 8.775 5.12222C8.775 4.14722 8.43195 3.31366 7.74584 2.62153C7.05972 1.9294 6.22917 1.58333 5.25417 1.58333C4.26713 1.58333 3.42755 1.9294 2.73542 2.62153C2.04329 3.31366 1.69722 4.14722 1.69722 5.12222C1.69722 6.09722 2.04329 6.93079 2.73542 7.62292C3.42755 8.31505 4.26713 8.66111 5.25417 8.66111Z" fill="white"/>
</svg>
