<svg width="40" height="32" viewBox="0 0 40 32" fill="none" xmlns="http://www.w3.org/2000/svg">
<path d="M20 25.85C20.4 25.85 20.75 25.7 21.05 25.4C21.35 25.1 21.5 24.75 21.5 24.35C21.5 23.95 21.35 23.6 21.05 23.3C20.75 23 20.4 22.85 20 22.85C19.6 22.85 19.25 23 18.95 23.3C18.65 23.6 18.5 23.95 18.5 24.35C18.5 24.75 18.65 25.1 18.95 25.4C19.25 25.7 19.6 25.85 20 25.85ZM20 17.5C20.4 17.5 20.75 17.35 21.05 17.05C21.35 16.75 21.5 16.4 21.5 16C21.5 15.6 21.35 15.25 21.05 14.95C20.75 14.65 20.4 14.5 20 14.5C19.6 14.5 19.25 14.65 18.95 14.95C18.65 15.25 18.5 15.6 18.5 16C18.5 16.4 18.65 16.75 18.95 17.05C19.25 17.35 19.6 17.5 20 17.5ZM20 9.15C20.4 9.15 20.75 9 21.05 8.7C21.35 8.4 21.5 8.05 21.5 7.65C21.5 7.25 21.35 6.9 21.05 6.6C20.75 6.3 20.4 6.15 20 6.15C19.6 6.15 19.25 6.3 18.95 6.6C18.65 6.9 18.5 7.25 18.5 7.65C18.5 8.05 18.65 8.4 18.95 8.7C19.25 9 19.6 9.15 20 9.15ZM37 32H3C2.175 32 1.46875 31.7063 0.88125 31.1188C0.29375 30.5313 0 29.825 0 29V21.35C1.23333 21.0833 2.25833 20.4583 3.075 19.475C3.89167 18.4917 4.3 17.3333 4.3 16C4.3 14.6667 3.89167 13.5 3.075 12.5C2.25833 11.5 1.23333 10.8833 0 10.65V3C0 2.175 0.29375 1.46875 0.88125 0.88125C1.46875 0.29375 2.175 0 3 0H37C37.825 0 38.5313 0.29375 39.1188 0.88125C39.7063 1.46875 40 2.175 40 3V10.65C38.7667 10.8833 37.7417 11.5 36.925 12.5C36.1083 13.5 35.7 14.6667 35.7 16C35.7 17.3333 36.1083 18.4917 36.925 19.475C37.7417 20.4583 38.7667 21.0833 40 21.35V29C40 29.825 39.7063 30.5313 39.1188 31.1188C38.5313 31.7063 37.825 32 37 32ZM37 29V23.55C35.7333 22.6833 34.7 21.6 33.9 20.3C33.1 19 32.7 17.5667 32.7 16C32.7 14.4333 33.1 13 33.9 11.7C34.7 10.4 35.7333 9.31667 37 8.45V3H3V8.45C4.3 9.31667 5.34167 10.4 6.125 11.7C6.90833 13 7.3 14.4333 7.3 16C7.3 17.5667 6.90833 19 6.125 20.3C5.34167 21.6 4.3 22.6833 3 23.55V29H37Z" fill="#081271"/>
</svg>
