<svg width="24" height="25" viewBox="0 0 24 25" fill="none" xmlns="http://www.w3.org/2000/svg">
<path d="M23.707 22.3068L17.738 16.3378C19.3646 14.3484 20.1644 11.8099 19.9718 9.24735C19.7793 6.68482 18.6092 4.29432 16.7036 2.57031C14.798 0.8463 12.3026 -0.0793182 9.73364 -0.0150864C7.16469 0.0491454 4.7187 1.09831 2.90161 2.9154C1.08452 4.73249 0.0353515 7.17848 -0.0288803 9.74743C-0.0931122 12.3164 0.832506 14.8117 2.55652 16.7174C4.28053 18.623 6.67103 19.7931 9.23356 19.9856C11.7961 20.1782 14.3346 19.3784 16.324 17.7518L22.293 23.7208C22.4816 23.9029 22.7342 24.0037 22.9964 24.0015C23.2586 23.9992 23.5094 23.894 23.6948 23.7086C23.8802 23.5232 23.9854 23.2724 23.9877 23.0102C23.9899 22.748 23.8892 22.4954 23.707 22.3068ZM10 18.0138C8.41774 18.0138 6.87103 17.5446 5.55543 16.6655C4.23984 15.7865 3.21446 14.5371 2.60896 13.0753C2.00346 11.6134 1.84503 10.0049 2.15371 8.45307C2.46239 6.90122 3.22432 5.47576 4.34314 4.35694C5.46196 3.23811 6.88742 2.47619 8.43927 2.16751C9.99112 1.85883 11.5997 2.01725 13.0615 2.62275C14.5233 3.22825 15.7727 4.25363 16.6518 5.56923C17.5308 6.88482 18 8.43154 18 10.0138C17.9976 12.1348 17.154 14.1682 15.6542 15.668C14.1544 17.1678 12.121 18.0114 10 18.0138Z" fill="#3C5DCA"/>
</svg>
