<svg width="38" height="38" viewBox="0 0 38 38" fill="none" xmlns="http://www.w3.org/2000/svg">
<circle cx="19" cy="19" r="19" fill="#5BC1FC"/>
<g filter="url(#filter0_d_1209_200)">
<path d="M28.0858 14.1142C27.5225 13.8325 26.8583 13.8917 26.355 14.2708C26.3225 14.295 26.2917 14.3225 26.2633 14.3508L24.7992 15.8283C24.6233 13.6908 22.8483 12 20.6667 12H13.1667C10.8692 11.9992 9 13.8683 9 16.1658V21.1658C9 23.4633 10.8692 25.3325 13.1667 25.3325H20.6667C22.8575 25.3325 24.64 23.6267 24.8017 21.4767L26.265 22.9383C26.2933 22.9658 26.3225 22.9908 26.3542 23.015C26.6475 23.235 26.9942 23.3467 27.3442 23.3467C27.5967 23.3467 27.8492 23.2892 28.0858 23.1708C28.65 22.8892 29 22.3217 29 21.6925V15.5942C29 14.9633 28.65 14.3958 28.0858 14.1142ZM20.6667 23.6658H13.1667C11.7883 23.6658 10.6667 22.5442 10.6667 21.1658V16.1658C10.6667 14.7875 11.7883 13.6658 13.1667 13.6658H20.6667C22.045 13.6658 23.1667 14.7875 23.1667 16.1658V21.1658C23.1667 22.5442 22.045 23.6658 20.6667 23.6658ZM24.8333 19.1517V18.1608L27.3333 15.6375L27.3542 21.6692L24.8333 19.1517Z" fill="white"/>
</g>
<defs>
<filter id="filter0_d_1209_200" x="2" y="5" width="34" height="27.332" filterUnits="userSpaceOnUse" color-interpolation-filters="sRGB">
<feFlood flood-opacity="0" result="BackgroundImageFix"/>
<feColorMatrix in="SourceAlpha" type="matrix" values="0 0 0 0 0 0 0 0 0 0 0 0 0 0 0 0 0 0 127 0" result="hardAlpha"/>
<feOffset/>
<feGaussianBlur stdDeviation="3.5"/>
<feComposite in2="hardAlpha" operator="out"/>
<feColorMatrix type="matrix" values="0 0 0 0 1 0 0 0 0 1 0 0 0 0 1 0 0 0 1 0"/>
<feBlend mode="normal" in2="BackgroundImageFix" result="effect1_dropShadow_1209_200"/>
<feBlend mode="normal" in="SourceGraphic" in2="effect1_dropShadow_1209_200" result="shape"/>
</filter>
</defs>
</svg>
