<svg width="67" height="74" viewBox="0 0 67 74" fill="none" xmlns="http://www.w3.org/2000/svg">
<circle cx="33.5" cy="45.5" r="28.5" fill="#000B70"/>
<path d="M28.3872 47.4199L29.3147 49.7078L31.6388 49.8894V50.2344H30.1693L30.7738 51.8414H32.3371V52.1138H31.7118L33.2646 69.9996H34.3693L35.8075 52.0684L35.1093 52.0502L35.0572 51.7688L36.9227 51.7325L37.475 50.2708L36.016 50.298V50.0256L38.215 49.7078L39.1946 47.4199H28.3872Z" fill="#795F38"/>
<g filter="url(#filter0_d_1184_182)">
<path d="M34.1412 45.7301C36.4132 46.1023 36.6737 40.7366 36.6737 40.7366C37.9452 42.2982 37.6117 45.4305 37.6117 45.4305C47.5854 38.3579 39.3104 28.0895 39.3104 28.0895C39.4459 29.76 39.1437 31.6212 39.1437 31.6212C38.4767 25.0298 35.3397 22.5785 35.3397 22.5785C36.3402 24.821 36.1422 26.0467 36.1422 26.0467C33.7452 20.7445 30.0038 20 30.0038 20C32.5363 23.8041 29.6703 27.1906 28.2737 29.6147C26.8772 32.0389 28.5239 33.6549 28.8782 34.1815C29.2326 34.7081 28.4822 34.6173 28.4822 34.6173C26.5437 33.4643 26.1477 31.1491 26.1477 31.1491C21.0827 40.2554 29.0866 45.2217 29.0866 45.2217C27.7527 41.2087 30.3581 38.83 30.3581 38.83C29.5973 43.7236 31.8693 45.3488 34.1412 45.7301Z" fill="#F9DF6F"/>
</g>
<defs>
<filter id="filter0_d_1184_182" x="0.467896" y="0" width="66.0643" height="73.749" filterUnits="userSpaceOnUse" color-interpolation-filters="sRGB">
<feFlood flood-opacity="0" result="BackgroundImageFix"/>
<feColorMatrix in="SourceAlpha" type="matrix" values="0 0 0 0 0 0 0 0 0 0 0 0 0 0 0 0 0 0 127 0" result="hardAlpha"/>
<feOffset dy="4"/>
<feGaussianBlur stdDeviation="12"/>
<feComposite in2="hardAlpha" operator="out"/>
<feColorMatrix type="matrix" values="0 0 0 0 0.976471 0 0 0 0 0.87451 0 0 0 0 0.435294 0 0 0 0.43 0"/>
<feBlend mode="normal" in2="BackgroundImageFix" result="effect1_dropShadow_1184_182"/>
<feBlend mode="normal" in="SourceGraphic" in2="effect1_dropShadow_1184_182" result="shape"/>
</filter>
</defs>
</svg>
